<svg width="2266" height="2122" viewBox="0 0 2266 2122" fill="none" xmlns="http://www.w3.org/2000/svg">
<g clip-path="url(#clip0_478_754)">
<path d="M1467 1516.9H597.072V1520.3H1467V1516.9Z" fill="#F3F3F3"/>
<rect x="663.826" y="694.434" width="929.748" height="472.906" rx="18.5" fill="#F3F3F3" fill-opacity="0.6" stroke="#282828" stroke-width="3"/>
<path d="M1042.99 1183.83C1044.07 1197.4 1051.91 1207.84 1060.52 1207.15C1069.13 1206.47 1075.23 1194.91 1074.15 1181.33C1073.79 1175.9 1072.15 1170.64 1069.35 1165.98L1064.06 1108.53L1037.26 1111.6L1045.31 1167.9C1043.28 1172.95 1042.49 1178.41 1042.99 1183.83Z" fill="#92BDF9"/>
<path d="M1010.97 915.827C1010.97 915.827 1036.03 902.514 1048.73 922.409C1061.44 942.304 1070.21 1157.47 1070.21 1157.47L1034.99 1161.25L1028.31 1009.62L1010.97 915.827Z" fill="#F3F3F3"/>
<path d="M958.959 1502.64L979.361 1502.64L989.066 1423.65L958.955 1423.66L958.959 1502.64Z" fill="#92BDF9"/>
<path d="M1028.86 1502.17C1029.49 1503.25 1029.83 1506.71 1029.83 1507.96C1029.83 1511.8 1026.73 1514.91 1022.9 1514.91H959.723C957.114 1514.91 954.999 1512.79 954.999 1510.17V1507.53C954.999 1507.53 951.874 1499.6 958.309 1489.82C958.309 1489.82 966.306 1497.47 978.257 1485.48L981.781 1479.07L1007.29 1497.8L1021.43 1499.54C1024.52 1499.92 1027.27 1499.48 1028.86 1502.17Z" fill="#282828" fill-opacity="0.95"/>
<path d="M1077.02 1499.25L1096.79 1494.18L1086.71 1415.24L1057.54 1422.73L1077.02 1499.25Z" fill="#92BDF9"/>
<path d="M1144.63 1481.43C1145.51 1482.32 1146.69 1485.59 1147 1486.8C1147.94 1490.52 1145.71 1494.3 1142 1495.25L1080.79 1510.95C1078.26 1511.6 1075.69 1510.07 1075.04 1507.53L1074.39 1504.97C1074.39 1504.97 1069.4 1498.06 1073.23 1486.99C1073.23 1486.99 1082.87 1492.42 1091.49 1477.83L1093.32 1470.75L1122.65 1482.55L1136.79 1480.73C1139.88 1480.33 1142.43 1479.22 1144.63 1481.43Z" fill="#282828" fill-opacity="0.95"/>
<path d="M942.081 898.848L941.113 891.803L952.61 863.621L984.2 860.098L991.02 900.444L942.081 898.848Z" fill="#92BDF9"/>
<path opacity="0.1" d="M942.081 898.848L941.113 891.803L952.61 863.621L984.2 860.098L991.02 900.444L942.081 898.848Z" fill="#909090"/>
<path d="M905.227 1097.88L891.188 1136.63L901.717 1157.77L954.366 1464.25H989.368L982.445 1193L1063.17 1464.25H1097.82L1069.96 1281.07L1049.13 1111.98L1036.5 1104.14L975.425 1069.7L905.227 1097.88Z" fill="#282828" fill-opacity="0.95"/>
<path d="M994.731 1124.3L973.671 1127.83L945.592 1060.9H1008.77L994.731 1124.3Z" fill="#F3F3F3"/>
<path d="M1036.85 1106.69L994.731 1124.3L980.691 1092.6L973.671 1127.83L899.963 1104.01L910.493 1060.9L899.963 919.985L937.133 895.114L942.082 891.803L987.711 895.326L991.712 897.51L1019.3 912.94L1026.32 1029.19L1036.85 1106.69Z" fill="#282828" fill-opacity="0.95"/>
<path d="M991.712 897.51L971.916 981.633L937.133 895.114L942.082 891.803L987.711 895.326L991.712 897.51Z" fill="#F3F3F3"/>
<path d="M957.875 891.803L950.855 903.937L957.875 907.982L954.365 981.852L968.405 1001.01L982.445 972.696L971.915 907.982L975.425 891.803H957.875Z" fill="#282828" fill-opacity="0.95"/>
<path d="M968.405 884.758C986.82 884.758 1001.75 869.774 1001.75 851.291C1001.75 832.809 986.82 817.825 968.405 817.825C949.989 817.825 935.061 832.809 935.061 851.291C935.061 869.774 949.989 884.758 968.405 884.758Z" fill="#92BDF9"/>
<path d="M947.096 854.227L954.301 857.383L957.445 838.448C957.445 838.448 970.022 832.136 979.455 835.292C988.888 838.448 1004.61 835.292 1004.61 835.292C1004.61 835.292 1004.61 803.734 982.6 803.734C960.59 803.734 938.579 806.89 938.579 816.357C938.579 825.825 929.147 835.292 929.147 835.292C929.147 835.292 916.569 854.227 929.147 866.85C941.724 879.473 948.012 879.473 948.012 879.473L947.096 854.227Z" fill="#282828" fill-opacity="0.95"/>
<path d="M882.397 1182.84C882.031 1196.45 888.732 1207.67 897.361 1207.9C905.991 1208.13 913.28 1197.29 913.644 1183.67C913.864 1178.24 912.783 1172.83 910.493 1167.9L911.316 1110.21L884.338 1110.4L886.39 1167.25C883.838 1172.05 882.468 1177.4 882.397 1182.84Z" fill="#92BDF9"/>
<path d="M915.774 912.873C915.774 912.873 892.959 905.828 882.43 926.964C871.9 948.101 885.94 1162.99 885.94 1162.99H921.357L911.957 1011.51L915.774 912.873Z" fill="#F3F3F3"/>
<path d="M1790.96 1313.21L1705.88 1287.07C1704 1286.49 1702.02 1286.28 1700.06 1286.45L1268.87 1323.28C1262.72 1323.8 1261.17 1332.13 1266.72 1334.84L1280.53 1341.59H1280.17V1664.89H1293.18V1347.78L1336.47 1368.94C1339.78 1370.56 1343.48 1371.22 1347.14 1370.85L1351.75 1370.38V1664.89H1364.76V1369.06L1698.27 1335.25V1664.89H1711.29V1333.93L1766.6 1328.33V1664.89H1779.61V1327.01L1789.71 1325.98C1796.79 1325.27 1797.77 1315.3 1790.96 1313.21Z" fill="#282828" fill-opacity="0.8"/>
<path d="M1394.04 1322C1402.18 1322 1522.57 1307.3 1522.57 1307.3L1540.46 1331.8L1415.19 1356.29L1394.04 1322Z" fill="white"/>
<path d="M1526.17 1652.33L1505.26 1652.3L1495.45 1571.31L1526.32 1571.36L1526.17 1652.33Z" fill="#92BDF9"/>
<path d="M1454.51 1651.74C1453.86 1652.83 1453.51 1656.39 1453.51 1657.67C1453.5 1661.6 1456.68 1664.8 1460.6 1664.8L1525.37 1664.92C1528.05 1664.92 1530.22 1662.75 1530.22 1660.06L1530.23 1657.36C1530.23 1657.36 1533.44 1649.23 1526.86 1639.19C1526.86 1639.19 1518.65 1647.03 1506.42 1634.71L1502.82 1628.13L1476.63 1647.29L1462.13 1649.05C1458.96 1649.44 1456.15 1648.98 1454.51 1651.74Z" fill="#282828" fill-opacity="0.95"/>
<path d="M1638.43 1614.67L1621.93 1627.17L1566.06 1569.23L1590.42 1550.79L1638.43 1614.67Z" fill="#92BDF9"/>
<path d="M1581.61 1657.1C1581.75 1658.36 1583.59 1661.37 1584.35 1662.38C1586.68 1665.48 1591.08 1666.1 1594.17 1663.76L1645.28 1625.07C1647.39 1623.47 1647.81 1620.46 1646.22 1618.34L1644.61 1616.21C1644.61 1616.21 1642.31 1607.87 1631.16 1603.9C1631.16 1603.9 1629.35 1615 1612.39 1612.61L1605.65 1609.59L1596.4 1640.36L1586.02 1650.43C1583.75 1652.63 1581.27 1653.95 1581.61 1657.1Z" fill="#282828" fill-opacity="0.95"/>
<path d="M1594.72 1196.1C1594.72 1215.46 1579.08 1231.16 1559.8 1231.16C1540.51 1231.16 1524.87 1215.46 1524.87 1196.1C1524.87 1176.75 1540.51 1161.05 1559.8 1161.05C1579.08 1161.05 1594.72 1176.75 1594.72 1196.1Z" fill="#92BDF9"/>
<path d="M1591.43 1398.2C1591.43 1398.2 1462.84 1390.9 1455.56 1405.51C1448.29 1420.12 1494.91 1620.8 1494.91 1620.8L1536.51 1612.05L1516.22 1471.26C1516.22 1471.26 1623.52 1499.78 1638.08 1465.69C1652.63 1431.6 1648.44 1418.9 1648.44 1418.9L1591.43 1398.2Z" fill="#282828" fill-opacity="0.95"/>
<path d="M1624.37 1373.68C1624.37 1373.68 1498.44 1400.78 1495.27 1416.8C1492.11 1432.82 1589.97 1613.98 1589.97 1613.98L1627.78 1594.49L1571.1 1464.1C1571.1 1464.1 1682.09 1463.11 1687.15 1426.37C1692.2 1389.63 1684.81 1378.5 1684.81 1378.5L1624.37 1373.68Z" fill="#282828" fill-opacity="0.95"/>
<path d="M1638.74 1236.28H1578.24L1536.84 1304.46C1536.84 1304.46 1527.14 1348.52 1536.84 1353.27C1546.55 1358.03 1546.55 1409.16 1546.55 1409.16L1648.44 1418.9C1648.44 1418.9 1663 1265.5 1658.15 1250.89C1653.3 1236.28 1638.74 1236.28 1638.74 1236.28Z" fill="#3380F3"/>
<path d="M1542.9 1281.32L1536.84 1353.27L1468.62 1324.21L1452.33 1315.99C1449.15 1311.82 1445.01 1308.47 1440.27 1306.23C1428.47 1300.47 1415.95 1301.89 1412.3 1309.42C1408.64 1316.95 1415.23 1327.73 1427.02 1333.49C1431.7 1335.86 1436.88 1337.07 1442.12 1337.02L1489.76 1364.18L1489.82 1364.07L1490.03 1364.45L1564.74 1395.77L1581.93 1301.32L1542.9 1281.32Z" fill="#92BDF9"/>
<path d="M1535.63 1200.97C1535.63 1200.97 1499.23 1205.84 1513.79 1174.18C1513.79 1174.18 1511.57 1157.02 1522.39 1155.86C1533.2 1154.7 1547.76 1135.22 1547.76 1135.22C1547.76 1135.22 1581.13 1118.18 1598.41 1135.22C1615.69 1152.27 1666.64 1252.1 1666.64 1252.1L1632.67 1288.63C1632.67 1288.63 1612.25 1234.75 1588.5 1240.99C1564.74 1247.23 1542.9 1265.84 1542.9 1265.84C1542.9 1265.84 1518.8 1253.73 1529.64 1243.18C1540.48 1232.62 1535.63 1200.97 1535.63 1200.97Z" fill="#282828" fill-opacity="0.95"/>
<path d="M1584.15 1254.54C1584.15 1254.54 1567.17 1232.62 1555.04 1249.67C1542.91 1266.71 1533.2 1288.63 1533.2 1288.63L1581.72 1305.67L1584.15 1254.54Z" fill="#3380F3"/>
<path d="M1768.38 1660.04L1712.01 1480.2L1712.02 1480.2H1712.15L1711.92 1479.91L1711.91 1479.9L1707.9 1467.09L1707.9 1467.09C1714.02 1461.8 1718.18 1454.24 1719.01 1445.54L1693.24 1303.29C1695.02 1284.61 1680.75 1268.28 1662.06 1267.61L1603.91 1267.46C1587.38 1266.87 1573.07 1278.86 1570.66 1295.29L1569.37 1304.01L1551.56 1425.63C1550.91 1430.01 1551.17 1434.32 1552.19 1438.35L1539.37 1440.04L1535.49 1440.56L1520.11 1442.57L1520.06 1442.58L1518.14 1442.83H1516.06V1495.08H1516.19V1662.08C1516.19 1663.16 1517.07 1664.04 1518.14 1664.04C1519.23 1664.04 1520.11 1663.16 1520.11 1662.08V1495.08H1542.92L1565.68 1661.89C1565.83 1662.87 1566.66 1663.58 1567.63 1663.58C1567.71 1663.58 1567.81 1663.58 1567.89 1663.57C1568.97 1663.42 1569.71 1662.43 1569.57 1661.35L1546.89 1495.08H1656.33C1667.2 1495.08 1677.26 1491.62 1685.46 1485.69L1728.86 1661.58C1729.08 1662.47 1729.88 1663.06 1730.75 1663.06C1730.91 1663.06 1731.08 1663.04 1731.24 1663C1732.29 1662.73 1732.92 1661.66 1732.65 1660.61L1688.84 1483.02C1689.43 1482.53 1690.01 1482.01 1690.56 1481.48L1707.98 1480.45L1764.65 1661.23C1764.91 1662.06 1765.68 1662.6 1766.51 1662.6C1766.71 1662.6 1766.91 1662.57 1767.1 1662.51C1768.14 1662.18 1768.71 1661.08 1768.38 1660.04ZM1704.18 1469.88C1704.32 1469.8 1704.45 1469.7 1704.58 1469.62L1705 1470.96L1704.18 1469.88Z" fill="#F3F3F3"/>
<path d="M662.199 1355.21L700.14 1330.99L715.565 1340.33L662.199 1401.87V1355.21Z" fill="#92BDF9"/>
<path d="M610.315 1261.48C610.315 1261.48 585.115 1267.43 596.974 1301.65C608.833 1335.87 647.375 1407.28 659.234 1402.82C671.093 1398.35 672.576 1353.72 672.576 1353.72C672.576 1353.72 671.093 1355.21 665.164 1349.26C659.234 1343.3 659.234 1346.02 659.234 1339.46C659.234 1332.89 654.384 1328.02 654.384 1328.02L648.858 1316.52C648.858 1316.52 648.858 1262.96 626.622 1259.99C604.386 1257.01 610.315 1261.48 610.315 1261.48Z" fill="#F3F3F3"/>
<path d="M728.055 1338.73C737.896 1328.85 740.946 1315.9 734.868 1309.8C728.789 1303.7 715.884 1306.76 706.042 1316.64C696.201 1326.51 693.15 1339.47 699.229 1345.57C705.307 1351.67 718.213 1348.61 728.055 1338.73Z" fill="#92BDF9"/>
<path d="M512.158 1458.61L538.047 1501.62L688.919 1492.66L648.746 1440.69L512.158 1458.61Z" fill="#F3F3F3"/>
<path d="M557.239 1659.76C556.361 1659.76 555.595 1659.11 555.473 1658.21L510.39 1327.75C510.256 1326.77 510.939 1325.86 511.916 1325.73C512.893 1325.59 513.793 1326.28 513.928 1327.26L559.011 1657.73C559.144 1658.71 558.461 1659.61 557.484 1659.75C557.402 1659.76 557.32 1659.76 557.239 1659.76Z" fill="#F3F3F3"/>
<path d="M512.159 1660.18C511.172 1660.18 510.373 1659.38 510.373 1658.39V1327.57C510.373 1326.58 511.173 1325.78 512.159 1325.78C513.145 1325.78 513.944 1326.58 513.944 1327.57V1658.39C513.944 1659.38 513.145 1660.18 512.159 1660.18Z" fill="#F3F3F3"/>
<path d="M738.465 1658.87C737.706 1658.87 737.002 1658.38 736.762 1657.61L630.081 1317.29C629.785 1316.35 630.308 1315.34 631.248 1315.04C632.188 1314.75 633.191 1315.27 633.487 1316.22L740.168 1656.54C740.464 1657.48 739.942 1658.49 739.001 1658.78C738.823 1658.84 738.642 1658.87 738.465 1658.87Z" fill="#F3F3F3"/>
<path d="M705.879 1659.29C705.082 1659.29 704.356 1658.75 704.15 1657.94L630.053 1357.58C629.811 1356.62 630.388 1355.65 631.344 1355.4C632.302 1355.16 633.271 1355.74 633.515 1356.7L707.611 1657.05C707.854 1658.01 707.277 1658.99 706.321 1659.23C706.173 1659.27 706.025 1659.29 705.879 1659.29Z" fill="#F3F3F3"/>
<path d="M512.158 1332.84L635.802 1330.93L658.566 1461.3H513.944L512.158 1332.84Z" fill="#F3F3F3"/>
<path d="M702.168 1524.54L671.008 1579.6L707.188 1587.59L722.271 1548.43L702.168 1524.54Z" fill="#92BDF9"/>
<path d="M682.199 1569.2C682.199 1569.2 680.988 1560.22 673.87 1563.07C666.751 1565.92 646.207 1576.51 646.207 1576.51C646.207 1576.51 699.791 1663.9 709.96 1659.83C720.129 1655.76 707.956 1631.05 707.956 1631.05L710.643 1587.39L682.199 1569.2Z" fill="#282828" fill-opacity="0.95"/>
<path d="M564.361 1417.7C564.361 1417.7 553.243 1469.02 587.338 1486.88C621.433 1504.73 737.801 1460.84 737.801 1460.84L684.435 1541.1L721.495 1556.06C721.495 1556.06 805.991 1444.48 800.061 1426.62C794.132 1408.77 754.107 1407.28 754.107 1407.28L663.681 1411.74L639.963 1404.31L564.361 1417.7Z" fill="#282828" fill-opacity="0.95"/>
<path d="M656.069 1548.97L607.082 1588.88L637.883 1609.54L666.131 1578.57L656.069 1548.97Z" fill="#92BDF9"/>
<path d="M621.276 1583.28C621.276 1583.28 623.404 1574.48 615.74 1574.53C608.077 1574.59 585.102 1576.95 585.102 1576.95C585.102 1576.95 603.33 1677.91 614.278 1677.83C625.226 1677.76 622.843 1650.3 622.843 1650.3L641.175 1610.61L621.276 1583.28Z" fill="#282828" fill-opacity="0.95"/>
<path d="M566.446 1399.13C566.446 1399.13 537.48 1442.88 562.765 1471.96C588.049 1501.04 712.352 1502.66 712.352 1502.66L633.548 1557.92L662.641 1585.4C662.641 1585.4 781.801 1512.32 782.751 1493.52C783.701 1474.73 746.96 1458.73 746.96 1458.73L661.115 1429.86L641.72 1414.27L566.446 1399.13Z" fill="#282828" fill-opacity="0.95"/>
<path d="M640.856 1297.79C640.856 1297.79 612.69 1287.38 599.349 1287.38C598.074 1287.38 596.814 1287.53 595.554 1287.79C587.015 1289.61 579.159 1296.97 575.394 1300.99C573.926 1302.57 573.081 1303.63 573.081 1303.63C573.081 1303.63 573.17 1302.6 573.348 1300.8C574.222 1291.34 577.454 1260.29 583.25 1240.41C585.325 1233.31 587.712 1227.64 590.455 1224.89C596.844 1218.46 599.794 1210.76 601.157 1205.01C602.314 1200.09 602.314 1196.62 602.314 1196.62L591.507 1191.95L589.506 1178.83C589.15 1180.37 587.505 1183.39 581.975 1189.18C581.501 1189.67 580.982 1190.09 580.434 1190.45C572.458 1195.48 556.197 1186.73 547.436 1181.22C551.082 1168.5 557.694 1156.87 569.701 1154.96C597.866 1150.5 597.867 1134.13 615.655 1151.99C617.123 1153.46 618.605 1154.87 620.088 1156.24C625.78 1167.16 627.855 1181.8 628.596 1191.98C629.13 1199.11 628.997 1204.06 628.997 1204.06C628.997 1204.06 636.409 1248.7 648.268 1257.62C660.127 1266.55 640.856 1297.79 640.856 1297.79Z" fill="#282828" fill-opacity="0.95"/>
<path d="M586.008 1226.38L565.979 1255.87L611.209 1268.04V1226.38H586.008Z" fill="#92BDF9"/>
<path opacity="0.1" d="M586.008 1226.38L565.979 1255.87L611.209 1268.04V1226.38H586.008Z" fill="#909090"/>
<path d="M614.021 1254.78L571.032 1236.93C571.032 1236.93 513.219 1262.22 517.666 1311.32C522.113 1360.41 563.62 1445.22 563.62 1445.22L646.634 1409.51L637.74 1314.29L614.021 1254.78Z" fill="#F3F3F3"/>
<path d="M595.589 1239.54C616.536 1239.54 633.516 1222.5 633.516 1201.48C633.516 1180.45 616.536 1163.41 595.589 1163.41C574.643 1163.41 557.662 1180.45 557.662 1201.48C557.662 1222.5 574.643 1239.54 595.589 1239.54Z" fill="#92BDF9"/>
<path d="M646.786 1187.69C639.374 1195.13 633.445 1202.57 633.445 1202.57L630.48 1190.67C630.48 1190.67 629.798 1191.18 628.597 1191.98C623.898 1195.19 611.283 1203.27 601.158 1205.01C596.652 1205.79 592.649 1205.3 590.04 1202.57C584.511 1196.79 582.866 1193.77 582.51 1192.22L580.509 1205.34L569.702 1210.01C569.702 1210.01 569.702 1226.35 581.561 1238.28C582.139 1238.86 582.703 1239.57 583.251 1240.41C588.914 1248.98 592.976 1269.96 595.555 1287.79C597.838 1303.65 598.935 1317.02 598.935 1317.02C598.935 1317.02 587.713 1302.91 575.394 1300.99C574.712 1300.89 574.031 1300.81 573.349 1300.8C573.126 1300.77 572.889 1300.77 572.667 1300.77C559.325 1300.77 531.16 1311.18 531.16 1311.18C531.16 1311.18 511.889 1279.94 523.748 1271.01C535.607 1262.09 543.019 1217.45 543.019 1217.45C543.019 1217.45 542.53 1198.35 547.436 1181.22C551.083 1168.5 557.695 1156.87 569.702 1154.96C597.867 1150.5 597.867 1134.13 615.656 1151.99C617.124 1153.46 618.606 1154.87 620.088 1156.24C636.662 1171.54 653.591 1180.87 646.786 1187.69Z" fill="#282828" fill-opacity="0.95"/>
<path d="M480.441 1387.41H466.355V1666.62H480.441V1387.41Z" fill="#282828" fill-opacity="0.8"/>
<path d="M822.013 1387.41H807.928V1666.62H822.013V1387.41Z" fill="#282828" fill-opacity="0.8"/>
<path d="M732.219 1269.02H638.902V1362.67H732.219V1269.02Z" fill="#3380F3" fill-opacity="0.7"/>
<path d="M585.115 1368.6L623.056 1344.38L638.481 1353.72L585.115 1415.26V1368.6Z" fill="#92BDF9"/>
<path d="M533.231 1274.87C533.231 1274.87 508.031 1280.82 519.89 1315.04C531.749 1349.26 570.291 1420.67 582.15 1416.21C594.009 1411.74 595.492 1367.11 595.492 1367.11C595.492 1367.11 594.01 1368.6 588.08 1362.65C582.15 1356.7 582.15 1359.41 582.15 1352.85C582.15 1346.28 577.301 1341.41 577.301 1341.41L571.774 1329.91C571.774 1329.91 571.774 1276.35 549.538 1273.38C527.302 1270.4 533.231 1274.87 533.231 1274.87Z" fill="#F3F3F3"/>
<path d="M650.971 1352.12C660.812 1342.24 663.862 1329.29 657.784 1323.19C651.705 1317.09 638.8 1320.15 628.958 1330.03C619.117 1339.9 616.066 1352.86 622.145 1358.96C628.223 1365.06 641.129 1362 650.971 1352.12Z" fill="#92BDF9"/>
<path d="M850.185 1376.81H424.1V1408.62H850.185V1376.81Z" fill="#282828" fill-opacity="0.8"/>
<path d="M1283.08 1122.35H1220.16C1215.17 1122.35 1211.12 1126.4 1211.12 1131.41V1157.46C1211.12 1162.46 1215.17 1166.52 1220.16 1166.52H1283.08C1288.07 1166.52 1292.12 1162.46 1292.12 1157.46V1131.41C1292.12 1126.4 1288.07 1122.35 1283.08 1122.35Z" fill="#282828" fill-opacity="0.8"/>
<path d="M1415.14 1148.39H1352.21C1347.22 1148.39 1343.18 1152.45 1343.18 1157.46V1157.46C1343.18 1162.46 1347.22 1166.52 1352.21 1166.52H1415.14C1420.12 1166.52 1424.17 1162.46 1424.17 1157.46C1424.17 1152.45 1420.12 1148.39 1415.14 1148.39Z" fill="#3380F3" fill-opacity="0.5"/>
<ellipse cx="1121.13" cy="1122.7" rx="688" ry="520.5" fill="url(#paint0_linear_478_754)" fill-opacity="0.15"/>
</g>
<line y1="-2" x2="20.6139" y2="-2" transform="matrix(0.562176 -0.827017 0.824509 0.56585 1459.97 510.22)" stroke="#92BDF9" stroke-width="4"/>
<line y1="-2" x2="20.6139" y2="-2" transform="matrix(0.562176 -0.827017 0.824509 0.56585 1477.88 482.248)" stroke="#92BDF9" stroke-width="4"/>
<line y1="-2" x2="20.6139" y2="-2" transform="matrix(0.562176 -0.827017 0.824509 0.56585 1496.28 453.773)" stroke="#92BDF9" stroke-width="4"/>
<line y1="-2" x2="20.5868" y2="-2" transform="matrix(-0.768953 -0.639305 0.635691 -0.771944 1533.72 398.22)" stroke="#92BDF9" stroke-width="4"/>
<line y1="-2" x2="20.5868" y2="-2" transform="matrix(-0.768953 -0.639305 0.635691 -0.771944 1507.64 377.739)" stroke="#92BDF9" stroke-width="4"/>
<line y1="-2" x2="20.5868" y2="-2" transform="matrix(-0.768953 -0.639305 0.635691 -0.771944 1481.11 356.709)" stroke="#92BDF9" stroke-width="4"/>
<line y1="-2" x2="20.6139" y2="-2" transform="matrix(0.562176 -0.827017 0.824509 0.56585 1514.18 425.801)" stroke="#92BDF9" stroke-width="4"/>
<line y1="-2" x2="20.6113" y2="-2" transform="matrix(0.585574 -0.810619 0.807952 0.589249 1456.56 339.913)" stroke="#92BDF9" stroke-width="4"/>
<line y1="-2" x2="20.6113" y2="-2" transform="matrix(0.585574 -0.810619 0.807952 0.589249 1475.26 312.467)" stroke="#92BDF9" stroke-width="4"/>
<line y1="-2" x2="20.6113" y2="-2" transform="matrix(0.585574 -0.810619 0.807952 0.589249 1494.46 284.533)" stroke="#92BDF9" stroke-width="4"/>
<line y1="-2" x2="20.6113" y2="-2" transform="matrix(0.585574 -0.810619 0.807952 0.589249 1513.15 257.087)" stroke="#92BDF9" stroke-width="4"/>
<line y1="-2" x2="20.6113" y2="-2" transform="matrix(0.585574 -0.810619 0.807952 0.589249 1532.58 230.918)" stroke="#92BDF9" stroke-width="4"/>
<line y1="-2" x2="20.6113" y2="-2" transform="matrix(0.585574 -0.810619 0.807952 0.589249 1551.27 203.473)" stroke="#92BDF9" stroke-width="4"/>
<line y1="-2" x2="20.6113" y2="-2" transform="matrix(0.585574 -0.810619 0.807952 0.589249 1570.48 175.538)" stroke="#92BDF9" stroke-width="4"/>
<line y1="-2" x2="20.6113" y2="-2" transform="matrix(0.585574 -0.810619 0.807952 0.589249 1589.17 148.093)" stroke="#92BDF9" stroke-width="4"/>
<line y1="-2" x2="20.6439" y2="-2" transform="matrix(-0.113005 -0.993594 0.993472 -0.114076 1122.26 513.65)" stroke="#92BDF9" stroke-width="4"/>
<line y1="-2" x2="20.6439" y2="-2" transform="matrix(-0.113005 -0.993594 0.993472 -0.114076 1117.59 480.727)" stroke="#92BDF9" stroke-width="4"/>
<line y1="-2" x2="20.6439" y2="-2" transform="matrix(-0.113005 -0.993594 0.993472 -0.114076 1112.97 447.093)" stroke="#92BDF9" stroke-width="4"/>
<line y1="-2" x2="20.6439" y2="-2" transform="matrix(-0.113005 -0.993594 0.993472 -0.114076 1108.3 414.169)" stroke="#92BDF9" stroke-width="4"/>
<line y1="-2" x2="20.6285" y2="-2" transform="matrix(-0.410437 -0.911889 0.910411 -0.413704 1884.81 1835.33)" stroke="#92BDF9" stroke-width="4"/>
<line y1="-2" x2="20.6285" y2="-2" transform="matrix(-0.410437 -0.911889 0.910411 -0.413704 1870.34 1805.42)" stroke="#92BDF9" stroke-width="4"/>
<line y1="-2" x2="20.6285" y2="-2" transform="matrix(-0.410437 -0.911889 0.910411 -0.413704 1855.7 1774.82)" stroke="#92BDF9" stroke-width="4"/>
<line y1="-2" x2="20.6285" y2="-2" transform="matrix(-0.410437 -0.911889 0.910411 -0.413704 1841.23 1744.91)" stroke="#92BDF9" stroke-width="4"/>
<line y1="-2" x2="20.5656" y2="-2" transform="matrix(0.898575 -0.438819 0.435442 0.900217 1784.92 1908.31)" stroke="#92BDF9" stroke-width="4"/>
<line y1="-2" x2="20.5656" y2="-2" transform="matrix(0.898575 -0.438819 0.435442 0.900217 1814.27 1892.95)" stroke="#92BDF9" stroke-width="4"/>
<line y1="-2" x2="20.5656" y2="-2" transform="matrix(0.898575 -0.438819 0.435442 0.900217 1844.31 1877.4)" stroke="#92BDF9" stroke-width="4"/>
<line y1="-2" x2="20.5656" y2="-2" transform="matrix(0.898575 -0.438819 0.435442 0.900217 1873.66 1862.04)" stroke="#92BDF9" stroke-width="4"/>
<line y1="-2" x2="20.5656" y2="-2" transform="matrix(0.898575 -0.438819 0.435442 0.900217 1665.78 1969.62)" stroke="#92BDF9" stroke-width="4"/>
<line y1="-2" x2="20.5656" y2="-2" transform="matrix(0.898575 -0.438819 0.435442 0.900217 1695.13 1954.26)" stroke="#92BDF9" stroke-width="4"/>
<line y1="-2" x2="20.5656" y2="-2" transform="matrix(0.898575 -0.438819 0.435442 0.900217 1725.17 1938.71)" stroke="#92BDF9" stroke-width="4"/>
<line y1="-2" x2="20.5656" y2="-2" transform="matrix(0.898575 -0.438819 0.435442 0.900217 1754.53 1923.35)" stroke="#92BDF9" stroke-width="4"/>
<line y1="-2" x2="20.6256" y2="-2" transform="matrix(0.418863 0.908049 -0.906443 0.422327 1650.48 1974.41)" stroke="#92BDF9" stroke-width="4"/>
<line y1="-2" x2="20.6256" y2="-2" transform="matrix(0.418863 0.908049 -0.906443 0.422327 1665.23 2004.18)" stroke="#92BDF9" stroke-width="4"/>
<line y1="-2" x2="20.6256" y2="-2" transform="matrix(0.418863 0.908049 -0.906443 0.422327 1680.15 2034.64)" stroke="#92BDF9" stroke-width="4"/>
<line y1="-2" x2="20.6256" y2="-2" transform="matrix(0.418863 0.908049 -0.906443 0.422327 1694.89 2064.41)" stroke="#92BDF9" stroke-width="4"/>
<ellipse cx="1614.93" cy="108.514" rx="11.1387" ry="11.1921" fill="#92BDF9" fill-opacity="0.5"/>
<ellipse cx="448.752" cy="1973.21" rx="11.1387" ry="11.1921" fill="#92BDF9" fill-opacity="0.5"/>
<line y1="-2" x2="20.6322" y2="-2" transform="matrix(-0.362428 0.932012 -0.930834 -0.365444 344.332 1479.3)" stroke="#92BDF9" stroke-width="4"/>
<line y1="-2" x2="20.6322" y2="-2" transform="matrix(-0.362428 0.932012 -0.930834 -0.365444 333.148 1510.6)" stroke="#92BDF9" stroke-width="4"/>
<line y1="-2" x2="20.6322" y2="-2" transform="matrix(-0.362428 0.932012 -0.930834 -0.365444 321.586 1542.5)" stroke="#92BDF9" stroke-width="4"/>
<line y1="-2" x2="20.6322" y2="-2" transform="matrix(-0.362428 0.932012 -0.930834 -0.365444 310.4 1573.8)" stroke="#92BDF9" stroke-width="4"/>
<line y1="-2" x2="20.6322" y2="-2" transform="matrix(-0.362428 0.932012 -0.930834 -0.365444 297.943 1607.11)" stroke="#92BDF9" stroke-width="4"/>
<line y1="-2" x2="20.6322" y2="-2" transform="matrix(-0.362428 0.932012 -0.930834 -0.365444 286.758 1638.41)" stroke="#92BDF9" stroke-width="4"/>
<line y1="-2" x2="20.6322" y2="-2" transform="matrix(-0.362428 0.932012 -0.930834 -0.365444 275.197 1670.32)" stroke="#92BDF9" stroke-width="4"/>
<line y1="-2" x2="20.6322" y2="-2" transform="matrix(-0.362428 0.932012 -0.930834 -0.365444 264.012 1701.61)" stroke="#92BDF9" stroke-width="4"/>
<line y1="-2" x2="20.6322" y2="-2" transform="matrix(-0.362428 0.932012 -0.930834 -0.365444 297.943 1607.11)" stroke="#92BDF9" stroke-width="4"/>
<line y1="-2" x2="20.6322" y2="-2" transform="matrix(-0.362428 0.932012 -0.930834 -0.365444 286.758 1638.41)" stroke="#92BDF9" stroke-width="4"/>
<line y1="-2" x2="20.6322" y2="-2" transform="matrix(-0.362428 0.932012 -0.930834 -0.365444 275.197 1670.32)" stroke="#92BDF9" stroke-width="4"/>
<line y1="-2" x2="20.6322" y2="-2" transform="matrix(-0.362428 0.932012 -0.930834 -0.365444 264.012 1701.61)" stroke="#92BDF9" stroke-width="4"/>
<line y1="-2" x2="20.6322" y2="-2" transform="matrix(-0.362428 0.932012 -0.930834 -0.365444 498.395 1830.63)" stroke="#92BDF9" stroke-width="4"/>
<line y1="-2" x2="20.6322" y2="-2" transform="matrix(-0.362428 0.932012 -0.930834 -0.365444 487.209 1861.93)" stroke="#92BDF9" stroke-width="4"/>
<line y1="-2" x2="20.6322" y2="-2" transform="matrix(-0.362428 0.932012 -0.930834 -0.365444 475.646 1893.83)" stroke="#92BDF9" stroke-width="4"/>
<line y1="-2" x2="20.6322" y2="-2" transform="matrix(-0.362428 0.932012 -0.930834 -0.365444 464.463 1925.13)" stroke="#92BDF9" stroke-width="4"/>
<line y1="-2" x2="20.6322" y2="-2" transform="matrix(-0.362428 0.932012 -0.930834 -0.365444 498.395 1830.63)" stroke="#92BDF9" stroke-width="4"/>
<line y1="-2" x2="20.6322" y2="-2" transform="matrix(-0.362428 0.932012 -0.930834 -0.365444 487.209 1861.93)" stroke="#92BDF9" stroke-width="4"/>
<line y1="-2" x2="20.6322" y2="-2" transform="matrix(-0.362428 0.932012 -0.930834 -0.365444 475.646 1893.83)" stroke="#92BDF9" stroke-width="4"/>
<line y1="-2" x2="20.6322" y2="-2" transform="matrix(-0.362428 0.932012 -0.930834 -0.365444 464.463 1925.13)" stroke="#92BDF9" stroke-width="4"/>
<ellipse cx="11.16" cy="11.1708" rx="11.16" ry="11.1708" transform="matrix(0.773836 -0.633386 0.62976 0.77679 1164.05 1843.79)" fill="#92BDF9" fill-opacity="0.5"/>
<ellipse cx="11.16" cy="11.1708" rx="11.16" ry="11.1708" transform="matrix(0.791983 -0.610544 0.606833 0.794829 1701.94 2103.97)" fill="#92BDF9" fill-opacity="0.5"/>
<ellipse cx="11.16" cy="11.1708" rx="11.16" ry="11.1708" transform="matrix(0.773836 -0.633386 0.62976 0.77679 2067.23 1406.66)" fill="#92BDF9" fill-opacity="0.5"/>
<line y1="-2" x2="20.636" y2="-2" transform="matrix(0.304777 0.952424 -0.951572 0.307427 991.645 1761.53)" stroke="#92BDF9" stroke-width="4"/>
<line y1="-2" x2="20.636" y2="-2" transform="matrix(0.304777 0.952424 -0.951572 0.307427 1002.65 1792.9)" stroke="#92BDF9" stroke-width="4"/>
<line y1="-2" x2="20.636" y2="-2" transform="matrix(0.304777 0.952424 -0.951572 0.307427 1013.74 1824.97)" stroke="#92BDF9" stroke-width="4"/>
<line y1="-2" x2="20.636" y2="-2" transform="matrix(0.304777 0.952424 -0.951572 0.307427 1024.74 1856.33)" stroke="#92BDF9" stroke-width="4"/>
<line y1="-2" x2="20.636" y2="-2" transform="matrix(0.304777 0.952424 -0.951572 0.307427 991.645 1761.53)" stroke="#92BDF9" stroke-width="4"/>
<line y1="-2" x2="20.636" y2="-2" transform="matrix(0.304777 0.952424 -0.951572 0.307427 1002.65 1792.9)" stroke="#92BDF9" stroke-width="4"/>
<line y1="-2" x2="20.636" y2="-2" transform="matrix(0.304777 0.952424 -0.951572 0.307427 1013.74 1824.97)" stroke="#92BDF9" stroke-width="4"/>
<line y1="-2" x2="20.636" y2="-2" transform="matrix(0.304777 0.952424 -0.951572 0.307427 1024.74 1856.33)" stroke="#92BDF9" stroke-width="4"/>
<line y1="-2" x2="20.636" y2="-2" transform="matrix(0.304777 0.952424 -0.951572 0.307427 1013.74 1824.97)" stroke="#92BDF9" stroke-width="4"/>
<line y1="-2" x2="20.636" y2="-2" transform="matrix(0.304777 0.952424 -0.951572 0.307427 1024.74 1856.33)" stroke="#92BDF9" stroke-width="4"/>
<line y1="-2" x2="20.636" y2="-2" transform="matrix(0.304777 0.952424 -0.951572 0.307427 1013.74 1824.97)" stroke="#92BDF9" stroke-width="4"/>
<line y1="-2" x2="20.636" y2="-2" transform="matrix(0.304777 0.952424 -0.951572 0.307427 1024.74 1856.33)" stroke="#92BDF9" stroke-width="4"/>
<line y1="-2" x2="20.636" y2="-2" transform="matrix(0.304777 0.952424 -0.951572 0.307427 991.645 1761.53)" stroke="#92BDF9" stroke-width="4"/>
<line y1="-2" x2="20.636" y2="-2" transform="matrix(0.304777 0.952424 -0.951572 0.307427 1002.65 1792.9)" stroke="#92BDF9" stroke-width="4"/>
<line y1="-2" x2="20.636" y2="-2" transform="matrix(0.304777 0.952424 -0.951572 0.307427 1013.74 1824.97)" stroke="#92BDF9" stroke-width="4"/>
<line y1="-2" x2="20.636" y2="-2" transform="matrix(0.304777 0.952424 -0.951572 0.307427 1024.74 1856.33)" stroke="#92BDF9" stroke-width="4"/>
<line y1="-2" x2="20.636" y2="-2" transform="matrix(0.304777 0.952424 -0.951572 0.307427 991.645 1761.53)" stroke="#92BDF9" stroke-width="4"/>
<line y1="-2" x2="20.636" y2="-2" transform="matrix(0.304777 0.952424 -0.951572 0.307427 1002.65 1792.9)" stroke="#92BDF9" stroke-width="4"/>
<line y1="-2" x2="20.636" y2="-2" transform="matrix(0.304777 0.952424 -0.951572 0.307427 1013.74 1824.97)" stroke="#92BDF9" stroke-width="4"/>
<line y1="-2" x2="20.636" y2="-2" transform="matrix(0.304777 0.952424 -0.951572 0.307427 1024.74 1856.33)" stroke="#92BDF9" stroke-width="4"/>
<line y1="-2" x2="20.636" y2="-2" transform="matrix(0.304777 0.952424 -0.951572 0.307427 1013.74 1824.97)" stroke="#92BDF9" stroke-width="4"/>
<line y1="-2" x2="20.636" y2="-2" transform="matrix(0.304777 0.952424 -0.951572 0.307427 1024.74 1856.33)" stroke="#92BDF9" stroke-width="4"/>
<line y1="-2" x2="20.636" y2="-2" transform="matrix(0.304777 0.952424 -0.951572 0.307427 1013.74 1824.97)" stroke="#92BDF9" stroke-width="4"/>
<line y1="-2" x2="20.636" y2="-2" transform="matrix(0.304777 0.952424 -0.951572 0.307427 1024.74 1856.33)" stroke="#92BDF9" stroke-width="4"/>
<line y1="-2" x2="20.5553" y2="-2" transform="matrix(0.95561 -0.294636 0.292075 0.956396 1037.29 1895.4)" stroke="#92BDF9" stroke-width="4"/>
<line y1="-2" x2="20.5553" y2="-2" transform="matrix(0.95561 -0.294636 0.292075 0.956396 1068.65 1884.76)" stroke="#92BDF9" stroke-width="4"/>
<line y1="-2" x2="20.5553" y2="-2" transform="matrix(0.95561 -0.294636 0.292075 0.956396 1100.71 1874.05)" stroke="#92BDF9" stroke-width="4"/>
<line y1="-2" x2="20.5553" y2="-2" transform="matrix(0.95561 -0.294636 0.292075 0.956396 1132.07 1863.42)" stroke="#92BDF9" stroke-width="4"/>
<line y1="-2" x2="20.5553" y2="-2" transform="matrix(0.95561 -0.294636 0.292075 0.956396 1037.29 1895.4)" stroke="#92BDF9" stroke-width="4"/>
<line y1="-2" x2="20.5553" y2="-2" transform="matrix(0.95561 -0.294636 0.292075 0.956396 1068.65 1884.76)" stroke="#92BDF9" stroke-width="4"/>
<line y1="-2" x2="20.5553" y2="-2" transform="matrix(0.95561 -0.294636 0.292075 0.956396 1100.71 1874.05)" stroke="#92BDF9" stroke-width="4"/>
<line y1="-2" x2="20.5553" y2="-2" transform="matrix(0.95561 -0.294636 0.292075 0.956396 1132.07 1863.42)" stroke="#92BDF9" stroke-width="4"/>
<line y1="-2" x2="20.5553" y2="-2" transform="matrix(0.95561 -0.294636 0.292075 0.956396 1100.71 1874.05)" stroke="#92BDF9" stroke-width="4"/>
<line y1="-2" x2="20.5553" y2="-2" transform="matrix(0.95561 -0.294636 0.292075 0.956396 1132.07 1863.42)" stroke="#92BDF9" stroke-width="4"/>
<line y1="-2" x2="20.5553" y2="-2" transform="matrix(0.95561 -0.294636 0.292075 0.956396 1100.71 1874.05)" stroke="#92BDF9" stroke-width="4"/>
<line y1="-2" x2="20.5553" y2="-2" transform="matrix(0.95561 -0.294636 0.292075 0.956396 1132.07 1863.42)" stroke="#92BDF9" stroke-width="4"/>
<line y1="-2" x2="20.57" y2="-2" transform="matrix(0.873118 0.487508 -0.483964 0.875088 1951 1339)" stroke="#92BDF9" stroke-width="4"/>
<line y1="-2" x2="20.57" y2="-2" transform="matrix(0.873118 0.487508 -0.483964 0.875088 1980.37 1354.34)" stroke="#92BDF9" stroke-width="4"/>
<line y1="-2" x2="20.57" y2="-2" transform="matrix(0.873118 0.487508 -0.483964 0.875088 2010.28 1370.14)" stroke="#92BDF9" stroke-width="4"/>
<line y1="-2" x2="20.57" y2="-2" transform="matrix(0.873118 0.487508 -0.483964 0.875088 2039.64 1385.48)" stroke="#92BDF9" stroke-width="4"/>
<line y1="-2" x2="20.5612" y2="-2" transform="matrix(0.923216 0.384281 -0.381161 0.924509 250.404 1736.92)" stroke="#92BDF9" stroke-width="4"/>
<line y1="-2" x2="20.5612" y2="-2" transform="matrix(0.923216 0.384281 -0.381161 0.924509 281.322 1748.79)" stroke="#92BDF9" stroke-width="4"/>
<line y1="-2" x2="20.5612" y2="-2" transform="matrix(0.923216 0.384281 -0.381161 0.924509 312.832 1761.05)" stroke="#92BDF9" stroke-width="4"/>
<line y1="-2" x2="20.5612" y2="-2" transform="matrix(0.923216 0.384281 -0.381161 0.924509 343.75 1772.92)" stroke="#92BDF9" stroke-width="4"/>
<line y1="-2" x2="20.5612" y2="-2" transform="matrix(0.923216 0.384281 -0.381161 0.924509 375.623 1786.84)" stroke="#92BDF9" stroke-width="4"/>
<line y1="-2" x2="20.5612" y2="-2" transform="matrix(0.923216 0.384281 -0.381161 0.924509 406.541 1798.71)" stroke="#92BDF9" stroke-width="4"/>
<line y1="-2" x2="20.5612" y2="-2" transform="matrix(0.923216 0.384281 -0.381161 0.924509 438.053 1810.97)" stroke="#92BDF9" stroke-width="4"/>
<line y1="-2" x2="20.5612" y2="-2" transform="matrix(0.923216 0.384281 -0.381161 0.924509 468.969 1822.84)" stroke="#92BDF9" stroke-width="4"/>
<ellipse cx="425.506" cy="11.1921" rx="11.1387" ry="11.1921" fill="#92BDF9" fill-opacity="0.5"/>
<line y1="-2" x2="20.5977" y2="-2" transform="matrix(-0.693015 -0.720923 0.717607 -0.696448 636.652 597.256)" stroke="#92BDF9" stroke-width="4"/>
<line y1="-2" x2="20.5977" y2="-2" transform="matrix(-0.693015 -0.720923 0.717607 -0.696448 613.004 573.986)" stroke="#92BDF9" stroke-width="4"/>
<line y1="-2" x2="20.5977" y2="-2" transform="matrix(-0.693015 -0.720923 0.717607 -0.696448 588.971 550.121)" stroke="#92BDF9" stroke-width="4"/>
<line y1="-2" x2="20.5977" y2="-2" transform="matrix(-0.693015 -0.720923 0.717607 -0.696448 565.324 526.853)" stroke="#92BDF9" stroke-width="4"/>
<line y1="-2" x2="20.5977" y2="-2" transform="matrix(-0.693015 -0.720923 0.717607 -0.696448 544.525 500.82)" stroke="#92BDF9" stroke-width="4"/>
<line y1="-2" x2="20.5977" y2="-2" transform="matrix(-0.693015 -0.720923 0.717607 -0.696448 520.877 477.55)" stroke="#92BDF9" stroke-width="4"/>
<line y1="-2" x2="20.5977" y2="-2" transform="matrix(-0.693015 -0.720923 0.717607 -0.696448 496.842 453.685)" stroke="#92BDF9" stroke-width="4"/>
<line y1="-2" x2="20.5977" y2="-2" transform="matrix(-0.693015 -0.720923 0.717607 -0.696448 473.197 430.415)" stroke="#92BDF9" stroke-width="4"/>
<line y1="-2" x2="20.5977" y2="-2" transform="matrix(-0.693015 -0.720923 0.717607 -0.696448 619.854 210.379)" stroke="#92BDF9" stroke-width="4"/>
<line y1="-2" x2="20.5977" y2="-2" transform="matrix(-0.693015 -0.720923 0.717607 -0.696448 596.207 187.11)" stroke="#92BDF9" stroke-width="4"/>
<line y1="-2" x2="20.5977" y2="-2" transform="matrix(-0.693015 -0.720923 0.717607 -0.696448 574.33 162.692)" stroke="#92BDF9" stroke-width="4"/>
<line y1="-2" x2="20.5977" y2="-2" transform="matrix(-0.693015 -0.720923 0.717607 -0.696448 550.684 139.422)" stroke="#92BDF9" stroke-width="4"/>
<line y1="-2" x2="20.5977" y2="-2" transform="matrix(-0.693015 -0.720923 0.717607 -0.696448 526.869 113.057)" stroke="#92BDF9" stroke-width="4"/>
<line y1="-2" x2="20.5977" y2="-2" transform="matrix(-0.693015 -0.720923 0.717607 -0.696448 503.223 89.7874)" stroke="#92BDF9" stroke-width="4"/>
<line y1="-2" x2="20.5977" y2="-2" transform="matrix(-0.693015 -0.720923 0.717607 -0.696448 481.346 65.3694)" stroke="#92BDF9" stroke-width="4"/>
<line y1="-2" x2="20.5977" y2="-2" transform="matrix(-0.693015 -0.720923 0.717607 -0.696448 457.699 42.0995)" stroke="#92BDF9" stroke-width="4"/>
<line y1="-2" x2="20.6018" y2="-2" transform="matrix(0.66226 -0.749274 0.746126 0.665805 449.889 411.903)" stroke="#92BDF9" stroke-width="4"/>
<line y1="-2" x2="20.6018" y2="-2" transform="matrix(0.66226 -0.749274 0.746126 0.665805 471.174 386.434)" stroke="#92BDF9" stroke-width="4"/>
<line y1="-2" x2="20.6018" y2="-2" transform="matrix(0.66226 -0.749274 0.746126 0.665805 493.016 360.529)" stroke="#92BDF9" stroke-width="4"/>
<line y1="-2" x2="20.6018" y2="-2" transform="matrix(0.66226 -0.749274 0.746126 0.665805 514.299 335.061)" stroke="#92BDF9" stroke-width="4"/>
<line y1="-2" x2="20.6018" y2="-2" transform="matrix(0.66226 -0.749274 0.746126 0.665805 534.473 312.227)" stroke="#92BDF9" stroke-width="4"/>
<line y1="-2" x2="20.5502" y2="-2" transform="matrix(-0.982284 -0.187399 0.18568 -0.98261 415.717 852.279)" stroke="#92BDF9" stroke-width="4"/>
<line y1="-2" x2="20.5502" y2="-2" transform="matrix(-0.982284 -0.187399 0.18568 -0.98261 382.383 846.724)" stroke="#92BDF9" stroke-width="4"/>
<line y1="-2" x2="20.5502" y2="-2" transform="matrix(-0.982284 -0.187399 0.18568 -0.98261 349.705 841.43)" stroke="#92BDF9" stroke-width="4"/>
<line y1="-2" x2="20.5502" y2="-2" transform="matrix(-0.982284 -0.187399 0.18568 -0.98261 314.828 835.249)" stroke="#92BDF9" stroke-width="4"/>
<line y1="-2" x2="20.5502" y2="-2" transform="matrix(-0.982284 -0.187399 0.18568 -0.98261 282.152 829.955)" stroke="#92BDF9" stroke-width="4"/>
<line y1="-2" x2="20.5502" y2="-2" transform="matrix(-0.982284 -0.187399 0.18568 -0.98261 248.818 824.4)" stroke="#92BDF9" stroke-width="4"/>
<line y1="-2" x2="20.5502" y2="-2" transform="matrix(-0.982284 -0.187399 0.18568 -0.98261 216.143 819.105)" stroke="#92BDF9" stroke-width="4"/>
<line y1="-2" x2="20.7858" y2="-2" transform="matrix(-0.188165 0.982138 -0.991067 -0.133365 181.014 811.667)" stroke="#92BDF9" stroke-width="4"/>
<line y1="-2" x2="20.7858" y2="-2" transform="matrix(-0.188165 0.982138 -0.991067 -0.133365 175.756 844.679)" stroke="#92BDF9" stroke-width="4"/>
<line y1="-2" x2="20.7858" y2="-2" transform="matrix(-0.188165 0.982138 -0.991067 -0.133365 170.219 878.362)" stroke="#92BDF9" stroke-width="4"/>
<line y1="-2" x2="20.7858" y2="-2" transform="matrix(-0.188165 0.982138 -0.991067 -0.133365 164.961 911.375)" stroke="#92BDF9" stroke-width="4"/>
<ellipse cx="11.16" cy="11.1708" rx="11.16" ry="11.1708" transform="matrix(0.787458 -0.616368 0.612678 0.790333 2233.9 822.475)" fill="#92BDF9" fill-opacity="0.5"/>
<line y1="-2" x2="20.5553" y2="-2" transform="matrix(0.961805 -0.273736 0.271159 0.962535 2106.04 871.302)" stroke="#92BDF9" stroke-width="4"/>
<line y1="-2" x2="20.5502" y2="-2" transform="matrix(0.953282 -0.302081 0.30375 0.952752 1838.43 821.632)" stroke="#92BDF9" stroke-width="4"/>
<line y1="-2" x2="20.5502" y2="-2" transform="matrix(0.953282 -0.302081 0.30375 0.952752 1870.39 810.672)" stroke="#92BDF9" stroke-width="4"/>
<line y1="-2" x2="20.5502" y2="-2" transform="matrix(0.953282 -0.302081 0.30375 0.952752 1901.66 799.796)" stroke="#92BDF9" stroke-width="4"/>
<line y1="-2" x2="20.5502" y2="-2" transform="matrix(0.953282 -0.302081 0.30375 0.952752 1935.28 788.654)" stroke="#92BDF9" stroke-width="4"/>
<line y1="-2" x2="20.5502" y2="-2" transform="matrix(0.953282 -0.302081 0.30375 0.952752 1966.54 777.778)" stroke="#92BDF9" stroke-width="4"/>
<line y1="-2" x2="20.5502" y2="-2" transform="matrix(0.953282 -0.302081 0.30375 0.952752 1998.52 766.819)" stroke="#92BDF9" stroke-width="4"/>
<line y1="-2" x2="20.5502" y2="-2" transform="matrix(0.953282 -0.302081 0.30375 0.952752 2029.78 755.946)" stroke="#92BDF9" stroke-width="4"/>
<line y1="-2" x2="20.7858" y2="-2" transform="matrix(-0.308551 -0.951208 0.932617 -0.360869 2101.86 857.241)" stroke="#92BDF9" stroke-width="4"/>
<line y1="-2" x2="20.7858" y2="-2" transform="matrix(-0.308551 -0.951208 0.932617 -0.360869 2090.55 825.784)" stroke="#92BDF9" stroke-width="4"/>
<line y1="-2" x2="20.7858" y2="-2" transform="matrix(-0.308551 -0.951208 0.932617 -0.360869 2079.17 793.604)" stroke="#92BDF9" stroke-width="4"/>
<line y1="-2" x2="20.7858" y2="-2" transform="matrix(-0.308551 -0.951208 0.932617 -0.360869 2067.86 762.145)" stroke="#92BDF9" stroke-width="4"/>
<line y1="-2" x2="20.5553" y2="-2" transform="matrix(0.961805 -0.273736 0.271159 0.962535 2137.62 861.354)" stroke="#92BDF9" stroke-width="4"/>
<line y1="-2" x2="20.5553" y2="-2" transform="matrix(0.961805 -0.273736 0.271159 0.962535 2169.92 851.342)" stroke="#92BDF9" stroke-width="4"/>
<line y1="-2" x2="20.5553" y2="-2" transform="matrix(0.961805 -0.273736 0.271159 0.962535 2201.5 841.394)" stroke="#92BDF9" stroke-width="4"/>
<ellipse cx="11.16" cy="11.1708" rx="11.16" ry="11.1708" transform="matrix(-0.97913 0.203237 -0.198655 -0.980069 26.293 932.896)" fill="#92BDF9" fill-opacity="0.5"/>
<line y1="-2" x2="20.5553" y2="-2" transform="matrix(-0.98345 -0.181178 0.183811 -0.982962 162.539 945.832)" stroke="#92BDF9" stroke-width="4"/>
<line y1="-2" x2="20.5553" y2="-2" transform="matrix(-0.98345 -0.181178 0.183811 -0.982962 129.818 940.742)" stroke="#92BDF9" stroke-width="4"/>
<line y1="-2" x2="20.5553" y2="-2" transform="matrix(-0.98345 -0.181178 0.183811 -0.982962 96.4355 935.397)" stroke="#92BDF9" stroke-width="4"/>
<line y1="-2" x2="20.5553" y2="-2" transform="matrix(-0.98345 -0.181178 0.183811 -0.982962 63.7188 930.308)" stroke="#92BDF9" stroke-width="4"/>
<line y1="-2" x2="20.6018" y2="-2" transform="matrix(0.66226 -0.749274 0.746126 0.665805 555.754 286.758)" stroke="#92BDF9" stroke-width="4"/>
<line y1="-2" x2="20.6018" y2="-2" transform="matrix(0.66226 -0.749274 0.746126 0.665805 577.598 260.854)" stroke="#92BDF9" stroke-width="4"/>
<ellipse cx="11.16" cy="11.1708" rx="11.16" ry="11.1708" transform="matrix(-0.286733 0.958011 -0.956659 -0.29121 969.773 382.985)" fill="#92BDF9" fill-opacity="0.5"/>
<line y1="-2" x2="20.57" y2="-2" transform="matrix(-0.996404 0.0847255 -0.0887655 -0.996053 1103.96 374)" stroke="#92BDF9" stroke-width="4"/>
<line y1="-2" x2="20.57" y2="-2" transform="matrix(-0.996404 0.0847255 -0.0887655 -0.996053 1071.04 377.725)" stroke="#92BDF9" stroke-width="4"/>
<line y1="-2" x2="20.57" y2="-2" transform="matrix(-0.996404 0.0847255 -0.0887655 -0.996053 1037.42 381.377)" stroke="#92BDF9" stroke-width="4"/>
<line y1="-2" x2="20.57" y2="-2" transform="matrix(-0.996404 0.0847255 -0.0887655 -0.996053 1004.49 385.102)" stroke="#92BDF9" stroke-width="4"/>
<line y1="-2" x2="20.6018" y2="-2" transform="matrix(0.66226 -0.749274 0.746126 0.665805 598.881 235.385)" stroke="#92BDF9" stroke-width="4"/>
<defs>
<linearGradient id="paint0_linear_478_754" x1="1156.13" y1="602.201" x2="1176.13" y2="1643.2" gradientUnits="userSpaceOnUse">
<stop stop-color="#92BDF9"/>
<stop offset="0.23" stop-color="#7091BD"/>
<stop offset="0.38" stop-color="#5D799C"/>
<stop offset="0.545" stop-color="#4C637E"/>
<stop offset="0.655" stop-color="#3B4D60"/>
<stop offset="0.84" stop-color="#344454"/>
<stop offset="1" stop-color="#2E3D4A"/>
</linearGradient>
<clipPath id="clip0_478_754">
<rect width="1498.4" height="1103.63" fill="white" transform="translate(360.127 574.201)"/>
</clipPath>
</defs>
</svg>
