<svg width="2266" height="2122" viewBox="0 0 2266 2122" fill="none" xmlns="http://www.w3.org/2000/svg">
<ellipse cx="1121.13" cy="1122.7" rx="688" ry="520.5" fill="url(#paint0_linear_481_1343)" fill-opacity="0.15"/>
<line y1="-2" x2="20.6139" y2="-2" transform="matrix(0.562176 -0.827017 0.824509 0.56585 1459.97 510.22)" stroke="#92BDF9" stroke-width="4"/>
<line y1="-2" x2="20.6139" y2="-2" transform="matrix(0.562176 -0.827017 0.824509 0.56585 1477.87 482.248)" stroke="#92BDF9" stroke-width="4"/>
<line y1="-2" x2="20.6139" y2="-2" transform="matrix(0.562176 -0.827017 0.824509 0.56585 1496.28 453.773)" stroke="#92BDF9" stroke-width="4"/>
<line y1="-2" x2="20.5868" y2="-2" transform="matrix(-0.768953 -0.639305 0.635691 -0.771944 1533.72 398.22)" stroke="#92BDF9" stroke-width="4"/>
<line y1="-2" x2="20.5868" y2="-2" transform="matrix(-0.768953 -0.639305 0.635691 -0.771944 1507.64 377.738)" stroke="#92BDF9" stroke-width="4"/>
<line y1="-2" x2="20.5868" y2="-2" transform="matrix(-0.768953 -0.639305 0.635691 -0.771944 1481.11 356.709)" stroke="#92BDF9" stroke-width="4"/>
<line y1="-2" x2="20.6139" y2="-2" transform="matrix(0.562176 -0.827017 0.824509 0.56585 1514.18 425.801)" stroke="#92BDF9" stroke-width="4"/>
<line y1="-2" x2="20.6113" y2="-2" transform="matrix(0.585574 -0.810619 0.807952 0.589249 1456.57 339.912)" stroke="#92BDF9" stroke-width="4"/>
<line y1="-2" x2="20.6113" y2="-2" transform="matrix(0.585574 -0.810619 0.807952 0.589249 1475.26 312.467)" stroke="#92BDF9" stroke-width="4"/>
<line y1="-2" x2="20.6113" y2="-2" transform="matrix(0.585574 -0.810619 0.807952 0.589249 1494.46 284.533)" stroke="#92BDF9" stroke-width="4"/>
<line y1="-2" x2="20.6113" y2="-2" transform="matrix(0.585574 -0.810619 0.807952 0.589249 1513.15 257.088)" stroke="#92BDF9" stroke-width="4"/>
<line y1="-2" x2="20.6113" y2="-2" transform="matrix(0.585574 -0.810619 0.807952 0.589249 1532.58 230.918)" stroke="#92BDF9" stroke-width="4"/>
<line y1="-2" x2="20.6113" y2="-2" transform="matrix(0.585574 -0.810619 0.807952 0.589249 1551.27 203.473)" stroke="#92BDF9" stroke-width="4"/>
<line y1="-2" x2="20.6113" y2="-2" transform="matrix(0.585574 -0.810619 0.807952 0.589249 1570.48 175.538)" stroke="#92BDF9" stroke-width="4"/>
<line y1="-2" x2="20.6113" y2="-2" transform="matrix(0.585574 -0.810619 0.807952 0.589249 1589.17 148.093)" stroke="#92BDF9" stroke-width="4"/>
<line y1="-2" x2="20.6439" y2="-2" transform="matrix(-0.113005 -0.993594 0.993472 -0.114076 1122.26 513.65)" stroke="#92BDF9" stroke-width="4"/>
<line y1="-2" x2="20.6439" y2="-2" transform="matrix(-0.113005 -0.993594 0.993472 -0.114076 1117.59 480.727)" stroke="#92BDF9" stroke-width="4"/>
<line y1="-2" x2="20.6439" y2="-2" transform="matrix(-0.113005 -0.993594 0.993472 -0.114076 1112.97 447.093)" stroke="#92BDF9" stroke-width="4"/>
<line y1="-2" x2="20.6439" y2="-2" transform="matrix(-0.113005 -0.993594 0.993472 -0.114076 1108.3 414.169)" stroke="#92BDF9" stroke-width="4"/>
<line y1="-2" x2="20.6285" y2="-2" transform="matrix(-0.410437 -0.911889 0.910411 -0.413704 1884.81 1835.33)" stroke="#92BDF9" stroke-width="4"/>
<line y1="-2" x2="20.6285" y2="-2" transform="matrix(-0.410437 -0.911889 0.910411 -0.413704 1870.34 1805.42)" stroke="#92BDF9" stroke-width="4"/>
<line y1="-2" x2="20.6285" y2="-2" transform="matrix(-0.410437 -0.911889 0.910411 -0.413704 1855.7 1774.82)" stroke="#92BDF9" stroke-width="4"/>
<line y1="-2" x2="20.6285" y2="-2" transform="matrix(-0.410437 -0.911889 0.910411 -0.413704 1841.23 1744.91)" stroke="#92BDF9" stroke-width="4"/>
<line y1="-2" x2="20.5656" y2="-2" transform="matrix(0.898575 -0.438819 0.435442 0.900217 1784.92 1908.31)" stroke="#92BDF9" stroke-width="4"/>
<line y1="-2" x2="20.5656" y2="-2" transform="matrix(0.898575 -0.438819 0.435442 0.900217 1814.27 1892.95)" stroke="#92BDF9" stroke-width="4"/>
<line y1="-2" x2="20.5656" y2="-2" transform="matrix(0.898575 -0.438819 0.435442 0.900217 1844.31 1877.4)" stroke="#92BDF9" stroke-width="4"/>
<line y1="-2" x2="20.5656" y2="-2" transform="matrix(0.898575 -0.438819 0.435442 0.900217 1873.66 1862.04)" stroke="#92BDF9" stroke-width="4"/>
<line y1="-2" x2="20.5656" y2="-2" transform="matrix(0.898575 -0.438819 0.435442 0.900217 1665.78 1969.62)" stroke="#92BDF9" stroke-width="4"/>
<line y1="-2" x2="20.5656" y2="-2" transform="matrix(0.898575 -0.438819 0.435442 0.900217 1695.13 1954.26)" stroke="#92BDF9" stroke-width="4"/>
<line y1="-2" x2="20.5656" y2="-2" transform="matrix(0.898575 -0.438819 0.435442 0.900217 1725.17 1938.71)" stroke="#92BDF9" stroke-width="4"/>
<line y1="-2" x2="20.5656" y2="-2" transform="matrix(0.898575 -0.438819 0.435442 0.900217 1754.53 1923.35)" stroke="#92BDF9" stroke-width="4"/>
<line y1="-2" x2="20.6256" y2="-2" transform="matrix(0.418863 0.908049 -0.906443 0.422327 1650.48 1974.41)" stroke="#92BDF9" stroke-width="4"/>
<line y1="-2" x2="20.6256" y2="-2" transform="matrix(0.418863 0.908049 -0.906443 0.422327 1665.23 2004.18)" stroke="#92BDF9" stroke-width="4"/>
<line y1="-2" x2="20.6256" y2="-2" transform="matrix(0.418863 0.908049 -0.906443 0.422327 1680.15 2034.64)" stroke="#92BDF9" stroke-width="4"/>
<line y1="-2" x2="20.6256" y2="-2" transform="matrix(0.418863 0.908049 -0.906443 0.422327 1694.89 2064.41)" stroke="#92BDF9" stroke-width="4"/>
<ellipse cx="1614.93" cy="108.514" rx="11.1387" ry="11.1921" fill="#92BDF9" fill-opacity="0.5"/>
<ellipse cx="448.752" cy="1973.21" rx="11.1387" ry="11.1921" fill="#92BDF9" fill-opacity="0.5"/>
<line y1="-2" x2="20.6322" y2="-2" transform="matrix(-0.362428 0.932012 -0.930834 -0.365444 344.332 1479.3)" stroke="#92BDF9" stroke-width="4"/>
<line y1="-2" x2="20.6322" y2="-2" transform="matrix(-0.362428 0.932012 -0.930834 -0.365444 333.148 1510.6)" stroke="#92BDF9" stroke-width="4"/>
<line y1="-2" x2="20.6322" y2="-2" transform="matrix(-0.362428 0.932012 -0.930834 -0.365444 321.585 1542.5)" stroke="#92BDF9" stroke-width="4"/>
<line y1="-2" x2="20.6322" y2="-2" transform="matrix(-0.362428 0.932012 -0.930834 -0.365444 310.401 1573.8)" stroke="#92BDF9" stroke-width="4"/>
<line y1="-2" x2="20.6322" y2="-2" transform="matrix(-0.362428 0.932012 -0.930834 -0.365444 297.944 1607.11)" stroke="#92BDF9" stroke-width="4"/>
<line y1="-2" x2="20.6322" y2="-2" transform="matrix(-0.362428 0.932012 -0.930834 -0.365444 286.758 1638.41)" stroke="#92BDF9" stroke-width="4"/>
<line y1="-2" x2="20.6322" y2="-2" transform="matrix(-0.362428 0.932012 -0.930834 -0.365444 275.198 1670.32)" stroke="#92BDF9" stroke-width="4"/>
<line y1="-2" x2="20.6322" y2="-2" transform="matrix(-0.362428 0.932012 -0.930834 -0.365444 264.011 1701.61)" stroke="#92BDF9" stroke-width="4"/>
<line y1="-2" x2="20.6322" y2="-2" transform="matrix(-0.362428 0.932012 -0.930834 -0.365444 297.944 1607.11)" stroke="#92BDF9" stroke-width="4"/>
<line y1="-2" x2="20.6322" y2="-2" transform="matrix(-0.362428 0.932012 -0.930834 -0.365444 286.758 1638.41)" stroke="#92BDF9" stroke-width="4"/>
<line y1="-2" x2="20.6322" y2="-2" transform="matrix(-0.362428 0.932012 -0.930834 -0.365444 275.198 1670.32)" stroke="#92BDF9" stroke-width="4"/>
<line y1="-2" x2="20.6322" y2="-2" transform="matrix(-0.362428 0.932012 -0.930834 -0.365444 264.011 1701.61)" stroke="#92BDF9" stroke-width="4"/>
<line y1="-2" x2="20.6322" y2="-2" transform="matrix(-0.362428 0.932012 -0.930834 -0.365444 498.394 1830.63)" stroke="#92BDF9" stroke-width="4"/>
<line y1="-2" x2="20.6322" y2="-2" transform="matrix(-0.362428 0.932012 -0.930834 -0.365444 487.21 1861.93)" stroke="#92BDF9" stroke-width="4"/>
<line y1="-2" x2="20.6322" y2="-2" transform="matrix(-0.362428 0.932012 -0.930834 -0.365444 475.647 1893.83)" stroke="#92BDF9" stroke-width="4"/>
<line y1="-2" x2="20.6322" y2="-2" transform="matrix(-0.362428 0.932012 -0.930834 -0.365444 464.463 1925.13)" stroke="#92BDF9" stroke-width="4"/>
<line y1="-2" x2="20.6322" y2="-2" transform="matrix(-0.362428 0.932012 -0.930834 -0.365444 498.394 1830.63)" stroke="#92BDF9" stroke-width="4"/>
<line y1="-2" x2="20.6322" y2="-2" transform="matrix(-0.362428 0.932012 -0.930834 -0.365444 487.21 1861.93)" stroke="#92BDF9" stroke-width="4"/>
<line y1="-2" x2="20.6322" y2="-2" transform="matrix(-0.362428 0.932012 -0.930834 -0.365444 475.647 1893.83)" stroke="#92BDF9" stroke-width="4"/>
<line y1="-2" x2="20.6322" y2="-2" transform="matrix(-0.362428 0.932012 -0.930834 -0.365444 464.463 1925.13)" stroke="#92BDF9" stroke-width="4"/>
<ellipse cx="11.16" cy="11.1708" rx="11.16" ry="11.1708" transform="matrix(0.773836 -0.633386 0.62976 0.77679 1164.05 1843.79)" fill="#92BDF9" fill-opacity="0.5"/>
<ellipse cx="11.16" cy="11.1708" rx="11.16" ry="11.1708" transform="matrix(0.791983 -0.610544 0.606833 0.794829 1701.94 2103.97)" fill="#92BDF9" fill-opacity="0.5"/>
<ellipse cx="11.16" cy="11.1708" rx="11.16" ry="11.1708" transform="matrix(0.773836 -0.633386 0.62976 0.77679 2067.23 1406.67)" fill="#92BDF9" fill-opacity="0.5"/>
<line y1="-2" x2="20.636" y2="-2" transform="matrix(0.304777 0.952424 -0.951572 0.307427 991.644 1761.53)" stroke="#92BDF9" stroke-width="4"/>
<line y1="-2" x2="20.636" y2="-2" transform="matrix(0.304777 0.952424 -0.951572 0.307427 1002.65 1792.9)" stroke="#92BDF9" stroke-width="4"/>
<line y1="-2" x2="20.636" y2="-2" transform="matrix(0.304777 0.952424 -0.951572 0.307427 1013.74 1824.97)" stroke="#92BDF9" stroke-width="4"/>
<line y1="-2" x2="20.636" y2="-2" transform="matrix(0.304777 0.952424 -0.951572 0.307427 1024.74 1856.33)" stroke="#92BDF9" stroke-width="4"/>
<line y1="-2" x2="20.636" y2="-2" transform="matrix(0.304777 0.952424 -0.951572 0.307427 991.644 1761.53)" stroke="#92BDF9" stroke-width="4"/>
<line y1="-2" x2="20.636" y2="-2" transform="matrix(0.304777 0.952424 -0.951572 0.307427 1002.65 1792.9)" stroke="#92BDF9" stroke-width="4"/>
<line y1="-2" x2="20.636" y2="-2" transform="matrix(0.304777 0.952424 -0.951572 0.307427 1013.74 1824.97)" stroke="#92BDF9" stroke-width="4"/>
<line y1="-2" x2="20.636" y2="-2" transform="matrix(0.304777 0.952424 -0.951572 0.307427 1024.74 1856.33)" stroke="#92BDF9" stroke-width="4"/>
<line y1="-2" x2="20.636" y2="-2" transform="matrix(0.304777 0.952424 -0.951572 0.307427 1013.74 1824.97)" stroke="#92BDF9" stroke-width="4"/>
<line y1="-2" x2="20.636" y2="-2" transform="matrix(0.304777 0.952424 -0.951572 0.307427 1024.74 1856.33)" stroke="#92BDF9" stroke-width="4"/>
<line y1="-2" x2="20.636" y2="-2" transform="matrix(0.304777 0.952424 -0.951572 0.307427 1013.74 1824.97)" stroke="#92BDF9" stroke-width="4"/>
<line y1="-2" x2="20.636" y2="-2" transform="matrix(0.304777 0.952424 -0.951572 0.307427 1024.74 1856.33)" stroke="#92BDF9" stroke-width="4"/>
<line y1="-2" x2="20.636" y2="-2" transform="matrix(0.304777 0.952424 -0.951572 0.307427 991.644 1761.53)" stroke="#92BDF9" stroke-width="4"/>
<line y1="-2" x2="20.636" y2="-2" transform="matrix(0.304777 0.952424 -0.951572 0.307427 1002.65 1792.9)" stroke="#92BDF9" stroke-width="4"/>
<line y1="-2" x2="20.636" y2="-2" transform="matrix(0.304777 0.952424 -0.951572 0.307427 1013.74 1824.97)" stroke="#92BDF9" stroke-width="4"/>
<line y1="-2" x2="20.636" y2="-2" transform="matrix(0.304777 0.952424 -0.951572 0.307427 1024.74 1856.33)" stroke="#92BDF9" stroke-width="4"/>
<line y1="-2" x2="20.636" y2="-2" transform="matrix(0.304777 0.952424 -0.951572 0.307427 991.644 1761.53)" stroke="#92BDF9" stroke-width="4"/>
<line y1="-2" x2="20.636" y2="-2" transform="matrix(0.304777 0.952424 -0.951572 0.307427 1002.65 1792.9)" stroke="#92BDF9" stroke-width="4"/>
<line y1="-2" x2="20.636" y2="-2" transform="matrix(0.304777 0.952424 -0.951572 0.307427 1013.74 1824.97)" stroke="#92BDF9" stroke-width="4"/>
<line y1="-2" x2="20.636" y2="-2" transform="matrix(0.304777 0.952424 -0.951572 0.307427 1024.74 1856.33)" stroke="#92BDF9" stroke-width="4"/>
<line y1="-2" x2="20.636" y2="-2" transform="matrix(0.304777 0.952424 -0.951572 0.307427 1013.74 1824.97)" stroke="#92BDF9" stroke-width="4"/>
<line y1="-2" x2="20.636" y2="-2" transform="matrix(0.304777 0.952424 -0.951572 0.307427 1024.74 1856.33)" stroke="#92BDF9" stroke-width="4"/>
<line y1="-2" x2="20.636" y2="-2" transform="matrix(0.304777 0.952424 -0.951572 0.307427 1013.74 1824.97)" stroke="#92BDF9" stroke-width="4"/>
<line y1="-2" x2="20.636" y2="-2" transform="matrix(0.304777 0.952424 -0.951572 0.307427 1024.74 1856.33)" stroke="#92BDF9" stroke-width="4"/>
<line y1="-2" x2="20.5553" y2="-2" transform="matrix(0.95561 -0.294636 0.292075 0.956396 1037.29 1895.4)" stroke="#92BDF9" stroke-width="4"/>
<line y1="-2" x2="20.5553" y2="-2" transform="matrix(0.95561 -0.294636 0.292075 0.956396 1068.65 1884.76)" stroke="#92BDF9" stroke-width="4"/>
<line y1="-2" x2="20.5553" y2="-2" transform="matrix(0.95561 -0.294636 0.292075 0.956396 1100.71 1874.05)" stroke="#92BDF9" stroke-width="4"/>
<line y1="-2" x2="20.5553" y2="-2" transform="matrix(0.95561 -0.294636 0.292075 0.956396 1132.07 1863.42)" stroke="#92BDF9" stroke-width="4"/>
<line y1="-2" x2="20.5553" y2="-2" transform="matrix(0.95561 -0.294636 0.292075 0.956396 1037.29 1895.4)" stroke="#92BDF9" stroke-width="4"/>
<line y1="-2" x2="20.5553" y2="-2" transform="matrix(0.95561 -0.294636 0.292075 0.956396 1068.65 1884.76)" stroke="#92BDF9" stroke-width="4"/>
<line y1="-2" x2="20.5553" y2="-2" transform="matrix(0.95561 -0.294636 0.292075 0.956396 1100.71 1874.05)" stroke="#92BDF9" stroke-width="4"/>
<line y1="-2" x2="20.5553" y2="-2" transform="matrix(0.95561 -0.294636 0.292075 0.956396 1132.07 1863.42)" stroke="#92BDF9" stroke-width="4"/>
<line y1="-2" x2="20.5553" y2="-2" transform="matrix(0.95561 -0.294636 0.292075 0.956396 1100.71 1874.05)" stroke="#92BDF9" stroke-width="4"/>
<line y1="-2" x2="20.5553" y2="-2" transform="matrix(0.95561 -0.294636 0.292075 0.956396 1132.07 1863.42)" stroke="#92BDF9" stroke-width="4"/>
<line y1="-2" x2="20.5553" y2="-2" transform="matrix(0.95561 -0.294636 0.292075 0.956396 1100.71 1874.05)" stroke="#92BDF9" stroke-width="4"/>
<line y1="-2" x2="20.5553" y2="-2" transform="matrix(0.95561 -0.294636 0.292075 0.956396 1132.07 1863.42)" stroke="#92BDF9" stroke-width="4"/>
<line y1="-2" x2="20.57" y2="-2" transform="matrix(0.873118 0.487508 -0.483964 0.875088 1951 1339)" stroke="#92BDF9" stroke-width="4"/>
<line y1="-2" x2="20.57" y2="-2" transform="matrix(0.873118 0.487508 -0.483964 0.875088 1980.37 1354.34)" stroke="#92BDF9" stroke-width="4"/>
<line y1="-2" x2="20.57" y2="-2" transform="matrix(0.873118 0.487508 -0.483964 0.875088 2010.28 1370.14)" stroke="#92BDF9" stroke-width="4"/>
<line y1="-2" x2="20.57" y2="-2" transform="matrix(0.873118 0.487508 -0.483964 0.875088 2039.64 1385.48)" stroke="#92BDF9" stroke-width="4"/>
<line y1="-2" x2="20.5612" y2="-2" transform="matrix(0.923216 0.384281 -0.381161 0.924509 250.404 1736.92)" stroke="#92BDF9" stroke-width="4"/>
<line y1="-2" x2="20.5612" y2="-2" transform="matrix(0.923216 0.384281 -0.381161 0.924509 281.323 1748.79)" stroke="#92BDF9" stroke-width="4"/>
<line y1="-2" x2="20.5612" y2="-2" transform="matrix(0.923216 0.384281 -0.381161 0.924509 312.832 1761.05)" stroke="#92BDF9" stroke-width="4"/>
<line y1="-2" x2="20.5612" y2="-2" transform="matrix(0.923216 0.384281 -0.381161 0.924509 343.749 1772.92)" stroke="#92BDF9" stroke-width="4"/>
<line y1="-2" x2="20.5612" y2="-2" transform="matrix(0.923216 0.384281 -0.381161 0.924509 375.624 1786.84)" stroke="#92BDF9" stroke-width="4"/>
<line y1="-2" x2="20.5612" y2="-2" transform="matrix(0.923216 0.384281 -0.381161 0.924509 406.541 1798.71)" stroke="#92BDF9" stroke-width="4"/>
<line y1="-2" x2="20.5612" y2="-2" transform="matrix(0.923216 0.384281 -0.381161 0.924509 438.052 1810.97)" stroke="#92BDF9" stroke-width="4"/>
<line y1="-2" x2="20.5612" y2="-2" transform="matrix(0.923216 0.384281 -0.381161 0.924509 468.969 1822.84)" stroke="#92BDF9" stroke-width="4"/>
<ellipse cx="425.506" cy="11.1921" rx="11.1387" ry="11.1921" fill="#92BDF9" fill-opacity="0.5"/>
<line y1="-2" x2="20.5977" y2="-2" transform="matrix(-0.693015 -0.720923 0.717607 -0.696448 636.652 597.256)" stroke="#92BDF9" stroke-width="4"/>
<line y1="-2" x2="20.5977" y2="-2" transform="matrix(-0.693015 -0.720923 0.717607 -0.696448 613.005 573.986)" stroke="#92BDF9" stroke-width="4"/>
<line y1="-2" x2="20.5977" y2="-2" transform="matrix(-0.693015 -0.720923 0.717607 -0.696448 588.97 550.122)" stroke="#92BDF9" stroke-width="4"/>
<line y1="-2" x2="20.5977" y2="-2" transform="matrix(-0.693015 -0.720923 0.717607 -0.696448 565.325 526.853)" stroke="#92BDF9" stroke-width="4"/>
<line y1="-2" x2="20.5977" y2="-2" transform="matrix(-0.693015 -0.720923 0.717607 -0.696448 544.525 500.82)" stroke="#92BDF9" stroke-width="4"/>
<line y1="-2" x2="20.5977" y2="-2" transform="matrix(-0.693015 -0.720923 0.717607 -0.696448 520.877 477.55)" stroke="#92BDF9" stroke-width="4"/>
<line y1="-2" x2="20.5977" y2="-2" transform="matrix(-0.693015 -0.720923 0.717607 -0.696448 496.843 453.685)" stroke="#92BDF9" stroke-width="4"/>
<line y1="-2" x2="20.5977" y2="-2" transform="matrix(-0.693015 -0.720923 0.717607 -0.696448 473.197 430.415)" stroke="#92BDF9" stroke-width="4"/>
<line y1="-2" x2="20.5977" y2="-2" transform="matrix(-0.693015 -0.720923 0.717607 -0.696448 619.853 210.38)" stroke="#92BDF9" stroke-width="4"/>
<line y1="-2" x2="20.5977" y2="-2" transform="matrix(-0.693015 -0.720923 0.717607 -0.696448 596.208 187.109)" stroke="#92BDF9" stroke-width="4"/>
<line y1="-2" x2="20.5977" y2="-2" transform="matrix(-0.693015 -0.720923 0.717607 -0.696448 574.33 162.691)" stroke="#92BDF9" stroke-width="4"/>
<line y1="-2" x2="20.5977" y2="-2" transform="matrix(-0.693015 -0.720923 0.717607 -0.696448 550.684 139.422)" stroke="#92BDF9" stroke-width="4"/>
<line y1="-2" x2="20.5977" y2="-2" transform="matrix(-0.693015 -0.720923 0.717607 -0.696448 526.869 113.058)" stroke="#92BDF9" stroke-width="4"/>
<line y1="-2" x2="20.5977" y2="-2" transform="matrix(-0.693015 -0.720923 0.717607 -0.696448 503.224 89.7871)" stroke="#92BDF9" stroke-width="4"/>
<line y1="-2" x2="20.5977" y2="-2" transform="matrix(-0.693015 -0.720923 0.717607 -0.696448 481.345 65.3691)" stroke="#92BDF9" stroke-width="4"/>
<line y1="-2" x2="20.5977" y2="-2" transform="matrix(-0.693015 -0.720923 0.717607 -0.696448 457.7 42.0996)" stroke="#92BDF9" stroke-width="4"/>
<line y1="-2" x2="20.6018" y2="-2" transform="matrix(0.66226 -0.749274 0.746126 0.665805 449.889 411.903)" stroke="#92BDF9" stroke-width="4"/>
<line y1="-2" x2="20.6018" y2="-2" transform="matrix(0.66226 -0.749274 0.746126 0.665805 471.173 386.434)" stroke="#92BDF9" stroke-width="4"/>
<line y1="-2" x2="20.6018" y2="-2" transform="matrix(0.66226 -0.749274 0.746126 0.665805 493.016 360.529)" stroke="#92BDF9" stroke-width="4"/>
<line y1="-2" x2="20.6018" y2="-2" transform="matrix(0.66226 -0.749274 0.746126 0.665805 514.298 335.061)" stroke="#92BDF9" stroke-width="4"/>
<line y1="-2" x2="20.6018" y2="-2" transform="matrix(0.66226 -0.749274 0.746126 0.665805 534.472 312.227)" stroke="#92BDF9" stroke-width="4"/>
<line y1="-2" x2="20.5502" y2="-2" transform="matrix(-0.982284 -0.187399 0.18568 -0.98261 415.716 852.279)" stroke="#92BDF9" stroke-width="4"/>
<line y1="-2" x2="20.5502" y2="-2" transform="matrix(-0.982284 -0.187399 0.18568 -0.98261 382.382 846.724)" stroke="#92BDF9" stroke-width="4"/>
<line y1="-2" x2="20.5502" y2="-2" transform="matrix(-0.982284 -0.187399 0.18568 -0.98261 349.705 841.431)" stroke="#92BDF9" stroke-width="4"/>
<line y1="-2" x2="20.5502" y2="-2" transform="matrix(-0.982284 -0.187399 0.18568 -0.98261 314.828 835.249)" stroke="#92BDF9" stroke-width="4"/>
<line y1="-2" x2="20.5502" y2="-2" transform="matrix(-0.982284 -0.187399 0.18568 -0.98261 282.152 829.955)" stroke="#92BDF9" stroke-width="4"/>
<line y1="-2" x2="20.5502" y2="-2" transform="matrix(-0.982284 -0.187399 0.18568 -0.98261 248.818 824.4)" stroke="#92BDF9" stroke-width="4"/>
<line y1="-2" x2="20.5502" y2="-2" transform="matrix(-0.982284 -0.187399 0.18568 -0.98261 216.142 819.105)" stroke="#92BDF9" stroke-width="4"/>
<line y1="-2" x2="20.7858" y2="-2" transform="matrix(-0.188165 0.982138 -0.991067 -0.133365 181.013 811.667)" stroke="#92BDF9" stroke-width="4"/>
<line y1="-2" x2="20.7858" y2="-2" transform="matrix(-0.188165 0.982138 -0.991067 -0.133365 175.755 844.679)" stroke="#92BDF9" stroke-width="4"/>
<line y1="-2" x2="20.7858" y2="-2" transform="matrix(-0.188165 0.982138 -0.991067 -0.133365 170.218 878.362)" stroke="#92BDF9" stroke-width="4"/>
<line y1="-2" x2="20.7858" y2="-2" transform="matrix(-0.188165 0.982138 -0.991067 -0.133365 164.96 911.375)" stroke="#92BDF9" stroke-width="4"/>
<ellipse cx="11.16" cy="11.1708" rx="11.16" ry="11.1708" transform="matrix(0.787458 -0.616368 0.612678 0.790333 2233.9 822.476)" fill="#92BDF9" fill-opacity="0.5"/>
<line y1="-2" x2="20.5553" y2="-2" transform="matrix(0.961805 -0.273736 0.271159 0.962535 2106.04 871.302)" stroke="#92BDF9" stroke-width="4"/>
<line y1="-2" x2="20.5502" y2="-2" transform="matrix(0.953282 -0.302081 0.30375 0.952752 1838.43 821.632)" stroke="#92BDF9" stroke-width="4"/>
<line y1="-2" x2="20.5502" y2="-2" transform="matrix(0.953282 -0.302081 0.30375 0.952752 1870.39 810.672)" stroke="#92BDF9" stroke-width="4"/>
<line y1="-2" x2="20.5502" y2="-2" transform="matrix(0.953282 -0.302081 0.30375 0.952752 1901.66 799.796)" stroke="#92BDF9" stroke-width="4"/>
<line y1="-2" x2="20.5502" y2="-2" transform="matrix(0.953282 -0.302081 0.30375 0.952752 1935.28 788.654)" stroke="#92BDF9" stroke-width="4"/>
<line y1="-2" x2="20.5502" y2="-2" transform="matrix(0.953282 -0.302081 0.30375 0.952752 1966.55 777.778)" stroke="#92BDF9" stroke-width="4"/>
<line y1="-2" x2="20.5502" y2="-2" transform="matrix(0.953282 -0.302081 0.30375 0.952752 1998.51 766.819)" stroke="#92BDF9" stroke-width="4"/>
<line y1="-2" x2="20.5502" y2="-2" transform="matrix(0.953282 -0.302081 0.30375 0.952752 2029.78 755.946)" stroke="#92BDF9" stroke-width="4"/>
<line y1="-2" x2="20.7858" y2="-2" transform="matrix(-0.308551 -0.951208 0.932617 -0.360869 2101.86 857.241)" stroke="#92BDF9" stroke-width="4"/>
<line y1="-2" x2="20.7858" y2="-2" transform="matrix(-0.308551 -0.951208 0.932617 -0.360869 2090.55 825.784)" stroke="#92BDF9" stroke-width="4"/>
<line y1="-2" x2="20.7858" y2="-2" transform="matrix(-0.308551 -0.951208 0.932617 -0.360869 2079.17 793.604)" stroke="#92BDF9" stroke-width="4"/>
<line y1="-2" x2="20.7858" y2="-2" transform="matrix(-0.308551 -0.951208 0.932617 -0.360869 2067.86 762.145)" stroke="#92BDF9" stroke-width="4"/>
<line y1="-2" x2="20.5553" y2="-2" transform="matrix(0.961805 -0.273736 0.271159 0.962535 2137.63 861.354)" stroke="#92BDF9" stroke-width="4"/>
<line y1="-2" x2="20.5553" y2="-2" transform="matrix(0.961805 -0.273736 0.271159 0.962535 2169.92 851.342)" stroke="#92BDF9" stroke-width="4"/>
<line y1="-2" x2="20.5553" y2="-2" transform="matrix(0.961805 -0.273736 0.271159 0.962535 2201.5 841.394)" stroke="#92BDF9" stroke-width="4"/>
<ellipse cx="11.16" cy="11.1708" rx="11.16" ry="11.1708" transform="matrix(-0.97913 0.203237 -0.198655 -0.980069 26.2925 932.896)" fill="#92BDF9" fill-opacity="0.5"/>
<line y1="-2" x2="20.5553" y2="-2" transform="matrix(-0.98345 -0.181178 0.183811 -0.982962 162.539 945.832)" stroke="#92BDF9" stroke-width="4"/>
<line y1="-2" x2="20.5553" y2="-2" transform="matrix(-0.98345 -0.181178 0.183811 -0.982962 129.818 940.742)" stroke="#92BDF9" stroke-width="4"/>
<line y1="-2" x2="20.5553" y2="-2" transform="matrix(-0.98345 -0.181178 0.183811 -0.982962 96.4351 935.397)" stroke="#92BDF9" stroke-width="4"/>
<line y1="-2" x2="20.5553" y2="-2" transform="matrix(-0.98345 -0.181178 0.183811 -0.982962 63.7183 930.308)" stroke="#92BDF9" stroke-width="4"/>
<line y1="-2" x2="20.6018" y2="-2" transform="matrix(0.66226 -0.749274 0.746126 0.665805 555.754 286.759)" stroke="#92BDF9" stroke-width="4"/>
<line y1="-2" x2="20.6018" y2="-2" transform="matrix(0.66226 -0.749274 0.746126 0.665805 577.598 260.854)" stroke="#92BDF9" stroke-width="4"/>
<ellipse cx="11.16" cy="11.1708" rx="11.16" ry="11.1708" transform="matrix(-0.286733 0.958011 -0.956659 -0.29121 969.773 382.985)" fill="#92BDF9" fill-opacity="0.5"/>
<line y1="-2" x2="20.57" y2="-2" transform="matrix(-0.996404 0.0847255 -0.0887655 -0.996053 1103.96 374)" stroke="#92BDF9" stroke-width="4"/>
<line y1="-2" x2="20.57" y2="-2" transform="matrix(-0.996404 0.0847255 -0.0887655 -0.996053 1071.04 377.725)" stroke="#92BDF9" stroke-width="4"/>
<line y1="-2" x2="20.57" y2="-2" transform="matrix(-0.996404 0.0847255 -0.0887655 -0.996053 1037.42 381.377)" stroke="#92BDF9" stroke-width="4"/>
<line y1="-2" x2="20.57" y2="-2" transform="matrix(-0.996404 0.0847255 -0.0887655 -0.996053 1004.49 385.102)" stroke="#92BDF9" stroke-width="4"/>
<line y1="-2" x2="20.6018" y2="-2" transform="matrix(0.66226 -0.749274 0.746126 0.665805 598.881 235.385)" stroke="#92BDF9" stroke-width="4"/>
<g clip-path="url(#clip0_481_1343)">
<path d="M1852.87 1492.23C1852.45 1507.94 1849.82 1523.51 1845.06 1538.48C1844.96 1538.83 1844.84 1539.17 1844.73 1539.52H1815.59C1815.62 1539.21 1815.65 1538.86 1815.68 1538.48C1817.62 1516.12 1806.52 1381.68 1793.13 1358.41C1794.3 1360.3 1855.13 1421.2 1852.87 1492.23Z" fill="#2E3D4A"/>
<path d="M1850.69 1538.48C1850.44 1538.83 1850.19 1539.17 1849.93 1539.52H1828.07C1828.23 1539.22 1828.43 1538.87 1828.65 1538.48C1832.26 1531.96 1842.95 1512.45 1852.87 1492.23C1863.53 1470.5 1873.32 1447.95 1872.49 1439.79C1872.75 1441.63 1880.13 1497.75 1850.69 1538.48Z" fill="#2E3D4A"/>
<path d="M486.645 1504.4C486.958 1516.06 488.91 1527.63 492.445 1538.75C492.524 1539 492.611 1539.26 492.695 1539.52H514.338C514.315 1539.29 514.292 1539.03 514.269 1538.75C512.826 1522.14 521.07 1422.29 531.017 1405.01C530.146 1406.41 484.967 1451.64 486.645 1504.4Z" fill="#2E3D4A"/>
<path d="M488.27 1538.75C488.451 1539.01 488.639 1539.26 488.832 1539.52H505.068C504.945 1539.3 504.803 1539.04 504.637 1538.75C501.955 1533.9 494.016 1519.42 486.647 1504.4C478.731 1488.26 471.462 1471.51 472.074 1465.45C471.885 1466.82 466.405 1508.5 488.27 1538.75Z" fill="#2E3D4A"/>
<path d="M1543.98 1282.66C1380.52 1213.33 1232.64 1215.97 1093.35 1258.28C878.724 1220.77 731.76 1226.57 637.49 1282.66V1108.52H1543.98V1282.66Z" fill="#316FF6"/>
<path d="M1543.98 1234.77C1393.39 1166.48 1242.98 1162.07 1090.3 1234.77C933.922 1189.71 782.748 1190.18 636.62 1234.77V705.392C791.984 658.983 943.112 660.098 1090.3 705.392C1245.78 660.254 1397.15 658.823 1543.98 705.392V1234.77Z" fill="#E5E5E5"/>
<path d="M677.43 771.088L672.365 758.112C674.35 757.335 721.791 738.979 791.415 729.616C855.785 720.958 951.688 718.891 1043.03 758.2L1037.53 770.999C949.244 733.004 856.177 735.005 793.648 743.372C725.588 752.481 677.904 770.903 677.43 771.088Z" fill="white"/>
<path d="M677.43 819.847L672.365 806.871C674.35 806.095 721.791 787.739 791.415 778.375C855.785 769.718 951.688 767.651 1043.03 806.959L1037.53 819.758C949.244 781.764 856.177 783.763 793.648 792.131C725.588 801.24 677.904 819.662 677.43 819.847Z" fill="white"/>
<path d="M677.43 868.606L672.365 855.63C674.35 854.853 721.791 836.497 791.415 827.134C855.785 818.476 951.688 816.409 1043.03 855.718L1037.53 868.517C949.244 830.523 856.177 832.522 793.648 840.89C725.588 849.999 677.904 868.421 677.43 868.606Z" fill="white"/>
<path d="M677.43 917.365L672.365 904.389C674.35 903.612 721.791 885.256 791.415 875.893C855.785 867.236 951.688 865.166 1043.03 904.477L1037.53 917.275C949.244 879.281 856.177 881.281 793.648 889.649C725.588 898.758 677.904 917.179 677.43 917.365Z" fill="white"/>
<path d="M677.43 966.124L672.365 953.147C674.35 952.371 721.791 934.015 791.415 924.652C855.785 915.993 951.688 913.926 1043.03 953.236L1037.53 966.034C949.244 928.039 856.177 930.04 793.648 938.408C725.588 947.517 677.904 965.938 677.43 966.124Z" fill="white"/>
<path d="M677.43 1014.88L672.365 1001.91C674.35 1001.13 721.791 982.774 791.415 973.411C855.785 964.754 951.688 962.685 1043.03 1001.99L1037.53 1014.79C949.244 976.798 856.177 978.8 793.648 987.167C725.588 996.276 677.904 1014.7 677.43 1014.88Z" fill="white"/>
<path d="M1131.55 1117.62L1126.48 1104.65C1128.47 1103.87 1175.91 1085.52 1245.53 1076.15C1309.9 1067.5 1405.81 1065.43 1497.15 1104.74L1491.65 1117.54C1403.36 1079.54 1310.29 1081.54 1247.76 1089.91C1179.7 1099.02 1132.02 1117.44 1131.55 1117.62Z" fill="#316FF6"/>
<path d="M1127.27 1024.05V757.737L1132.16 756.21C1255.94 717.511 1379.13 717.519 1498.28 756.233L1503.1 757.796V1023.69L1493.68 1020.13C1369.68 973.294 1249.64 973.266 1136.9 1020.05L1127.27 1024.05ZM1310.95 971.021C1369.21 971.021 1428.62 981.891 1489.18 1003.63V767.943C1375.88 732.184 1258.85 732.204 1141.19 768V1003.31C1195.26 981.989 1252.84 971.037 1310.95 971.021Z" fill="white"/>
<path d="M1489.47 1110.72L1491.29 1066.4L1553.83 941.948C1555.59 938.41 1558.47 935.549 1562.02 933.804C1564.19 932.72 1566.55 932.08 1568.97 931.922C1571.39 931.764 1573.82 932.09 1576.12 932.883C1578.77 933.799 1581.18 935.318 1583.16 937.32C1585.13 939.322 1586.61 941.753 1587.49 944.424C1587.87 945.577 1588.14 946.764 1588.29 947.968C1588.73 951.542 1588.1 955.167 1586.47 958.38L1523.85 1083L1489.47 1110.72Z" fill="#316FF6"/>
<path d="M1569.8 932.757L1501.91 1067.85L1496.74 1065.25L1562.4 934.585C1564.7 933.433 1567.23 932.808 1569.8 932.757Z" fill="#282828"/>
<path d="M1587.42 948.078L1522.12 1078.03L1516.94 1075.42L1584.69 940.604C1585.53 941.876 1586.19 943.252 1586.67 944.697C1587.03 945.797 1587.28 946.929 1587.42 948.078Z" fill="#282828"/>
<path d="M1580.92 936.483L1512.28 1073.07L1507.11 1070.47L1575.83 933.706C1576.56 933.957 1577.28 934.258 1577.97 934.607C1579.01 935.133 1580 935.762 1580.92 936.483Z" fill="#282828"/>
<path d="M1497.32 1103.28L1490.41 1108.84L1490.99 1094.17C1493.36 1094.99 1495.93 1098.56 1497.32 1103.28Z" fill="#282828"/>
<path d="M816.053 1263.25L807.784 1238.15L816.593 1155.61C816.835 1153.26 817.839 1151.06 819.451 1149.35C820.435 1148.29 821.621 1147.43 822.938 1146.84C824.255 1146.24 825.678 1145.91 827.123 1145.87C828.797 1145.83 830.459 1146.17 831.979 1146.87C833.5 1147.57 834.837 1148.62 835.888 1149.92C836.34 1150.49 836.737 1151.09 837.072 1151.73C838.069 1153.63 838.476 1155.79 838.242 1157.92L829.421 1240.58L816.053 1263.25Z" fill="#316FF6"/>
<path d="M823.576 1147.13L814.014 1236.73L810.581 1236.36L819.829 1149.7C820.872 1148.57 822.152 1147.7 823.576 1147.13Z" fill="#282828"/>
<path d="M836.614 1151.98L827.416 1238.16L823.983 1237.79L833.525 1148.38C834.257 1148.91 834.916 1149.54 835.484 1150.25C835.915 1150.79 836.294 1151.36 836.614 1151.98Z" fill="#282828"/>
<path d="M830.558 1146.87L820.89 1237.46L817.457 1237.1L827.137 1146.39C827.598 1146.38 828.06 1146.4 828.518 1146.45C829.211 1146.52 829.894 1146.66 830.558 1146.87Z" fill="#282828"/>
<path d="M818.872 1257.45L816.186 1262.01L813.433 1253.7C814.928 1253.66 817.109 1255.11 818.872 1257.45Z" fill="#282828"/>
<path d="M1711.7 1233.81C1710.76 1235.46 1709.5 1236.91 1708 1238.07C1706.5 1239.24 1704.78 1240.09 1702.95 1240.59C1699.25 1241.6 1695.31 1241.1 1691.98 1239.19C1688.65 1237.29 1686.22 1234.14 1685.21 1230.44C1684.2 1226.74 1684.71 1222.79 1686.61 1219.46C1686.64 1219.4 1686.67 1219.34 1686.71 1219.29C1687.11 1218.61 1687.57 1217.96 1688.07 1217.36L1675.91 1130.64L1675.55 1128.04L1673.08 1110.35L1672.71 1107.8L1674.06 1107.86L1697.61 1108.94L1703.93 1109.23L1704.72 1125.37L1709.2 1216.12C1711.54 1218.36 1713.06 1221.32 1713.51 1224.53C1713.96 1227.74 1713.33 1231.01 1711.7 1233.81Z" fill="#92BDF9"/>
<path d="M1675.62 1128.83L1705.52 1126.08C1707.07 1125.94 1708.5 1125.18 1709.5 1123.99C1710.5 1122.79 1710.98 1121.24 1710.85 1119.69L1705.31 1057.45C1704.77 1051.45 1701.88 1045.92 1697.27 1042.06C1692.65 1038.19 1686.7 1036.33 1680.71 1036.86C1674.72 1037.4 1669.19 1040.29 1665.33 1044.91C1661.47 1049.53 1659.6 1055.49 1660.14 1061.48C1660.18 1061.91 1660.23 1062.34 1660.29 1062.77L1669.26 1123.82C1669.46 1125.22 1670.17 1126.49 1671.23 1127.42C1672.3 1128.34 1673.67 1128.85 1675.08 1128.86C1675.26 1128.86 1675.44 1128.85 1675.62 1128.83Z" fill="#316FF6"/>
<path d="M1698.29 1078.55C1701.31 1069.97 1701.45 1060.64 1698.68 1051.98C1695.92 1043.32 1690.4 1035.8 1682.97 1030.57C1671.69 1022.84 1656.26 1020.07 1639.64 1039.87C1619.53 1064.05 1605.18 1092.49 1597.7 1123.04L1665.75 1134.13C1665.75 1134.13 1688.9 1105.81 1698.29 1078.55Z" fill="#316FF6"/>
<path d="M1588.21 1524.64H1568.81L1559.57 1449.73H1588.21L1588.21 1524.64Z" fill="#92BDF9"/>
<path d="M1531.39 1542.67H1592.37V1519.09H1554.95C1548.7 1519.09 1542.71 1521.57 1538.29 1525.99C1533.87 1530.42 1531.39 1536.42 1531.39 1542.67Z" fill="#282828"/>
<path d="M1747.74 1507.7L1729.32 1513.79L1697.06 1445.57L1724.25 1436.57L1747.74 1507.7Z" fill="#92BDF9"/>
<path d="M1699.44 1542.67L1757.35 1523.51L1749.95 1501.12L1714.42 1512.88C1708.49 1514.84 1703.57 1519.08 1700.77 1524.67C1697.96 1530.26 1697.48 1536.73 1699.44 1542.67Z" fill="#282828"/>
<path d="M1655.56 1010.93C1677.03 1010.93 1694.44 993.506 1694.44 972.018C1694.44 950.531 1677.03 933.111 1655.56 933.111C1634.09 933.111 1616.69 950.531 1616.69 972.018C1616.69 993.506 1634.09 1010.93 1655.56 1010.93Z" fill="#92BDF9"/>
<path d="M1621.53 1503.79L1639.54 1384.75C1639.74 1383.48 1640.36 1382.31 1641.32 1381.46C1642.27 1380.6 1643.5 1380.1 1644.78 1380.04C1646.06 1379.98 1647.32 1380.38 1648.35 1381.15C1649.38 1381.92 1650.1 1383.03 1650.41 1384.27L1677.85 1497.71C1678.28 1499.45 1679.35 1500.97 1680.84 1501.96C1682.33 1502.95 1684.13 1503.35 1685.9 1503.08L1761.6 1490.9C1762.6 1490.74 1763.56 1490.37 1764.4 1489.8C1765.25 1489.24 1765.97 1488.5 1766.51 1487.64C1767.05 1486.78 1767.39 1485.81 1767.53 1484.8C1767.66 1483.79 1767.58 1482.77 1767.28 1481.79L1668.58 1156.1C1668.3 1155.18 1668.27 1154.19 1668.48 1153.25L1671.77 1138.99C1672.13 1137.45 1671.96 1135.83 1671.3 1134.39C1670.63 1132.95 1669.5 1131.77 1668.09 1131.05C1654.65 1124.19 1620.6 1109.92 1594.91 1125.55C1594.08 1126.06 1593.36 1126.73 1592.79 1127.53C1592.23 1128.32 1591.83 1129.23 1591.62 1130.18L1514.52 1492.9C1514.31 1493.88 1514.31 1494.9 1514.52 1495.89C1514.74 1496.87 1515.16 1497.8 1515.75 1498.61C1516.35 1499.42 1517.12 1500.1 1517.99 1500.59C1518.87 1501.09 1519.85 1501.39 1520.85 1501.48L1613.85 1509.82C1614.06 1509.83 1614.27 1509.84 1614.48 1509.84C1616.18 1509.84 1617.83 1509.23 1619.12 1508.12C1620.41 1507.01 1621.26 1505.47 1621.52 1503.78L1621.53 1503.79Z" fill="#282828"/>
<path d="M1681.34 944.53C1678.41 942.765 1675.81 940.503 1673.65 937.845C1672.59 936.501 1671.89 934.907 1671.62 933.214C1671.35 931.522 1671.53 929.789 1672.12 928.182C1674.08 923.844 1679.92 922.479 1684.44 923.951C1688.97 925.422 1692.46 928.975 1695.76 932.399C1698.68 935.408 1701.67 938.564 1703.05 942.523C1704.42 946.481 1703.72 951.501 1700.28 953.904C1696.91 956.261 1692.06 955.297 1688.82 952.765C1685.76 949.997 1683.32 946.613 1681.66 942.833L1681.34 944.53Z" fill="#282828"/>
<path d="M1694.51 933.444C1694.72 922.482 1707.21 914.62 1717.99 916.564C1728.77 918.508 1737.06 927.708 1741.21 937.856C1749.97 959.297 1743.39 983.761 1734.95 1005.34C1726.5 1026.92 1716.05 1048.8 1717.28 1071.94C1718.12 1084.44 1722.31 1096.49 1729.42 1106.81C1736.53 1117.12 1746.29 1125.33 1757.67 1130.55C1745.5 1136.07 1730.95 1130.37 1720.73 1121.76C1698.02 1102.65 1689.25 1068.62 1699.9 1040.9C1705.15 1027.23 1714.4 1015.53 1721.62 1002.8C1728.85 990.058 1734.15 975.046 1730.42 960.882C1726.69 946.719 1710.81 935.253 1697.25 940.732L1694.51 933.444Z" fill="#282828"/>
<path d="M1653.23 989.284C1656.62 983.552 1660.04 976.028 1653.85 971.017C1652.5 969.978 1650.96 969.218 1649.31 968.783C1647.67 968.347 1645.95 968.245 1644.27 968.483C1637.29 969.326 1629.68 969.672 1622.92 967.133C1620.39 966.26 1618.05 964.886 1616.06 963.092C1614.06 961.299 1612.45 959.122 1611.31 956.692C1607.83 948.417 1612.19 938.361 1619.49 933.131C1623.95 930.047 1629.22 928.35 1634.65 928.254C1640.07 928.158 1645.4 929.667 1649.97 932.59C1659.42 928.413 1670.88 930.271 1679.47 936.021C1688.05 941.772 1693.92 950.98 1697.11 960.813C1700.05 969.276 1700.56 978.395 1698.58 987.132C1696.98 993.211 1693.94 998.814 1689.72 1003.47C1685.5 1008.12 1680.22 1011.69 1674.33 1013.87C1672.04 1014.78 1669.55 1015.06 1667.11 1014.7C1664.67 1014.34 1662.37 1013.34 1660.43 1011.81C1657.29 1008.99 1654.88 1005.45 1653.4 1001.49C1652.11 997.157 1651.42 992.346 1653.23 989.284Z" fill="#282828"/>
<path d="M1537.91 1024C1538.1 1024.86 1538.23 1025.72 1538.29 1026.6L1606.28 1065.86L1622.8 1056.33L1640.42 1079.42L1612.8 1099.12C1610.57 1100.71 1607.88 1101.54 1605.14 1101.47C1602.4 1101.4 1599.76 1100.45 1597.61 1098.75L1527.49 1043.39C1524.33 1044.56 1520.88 1044.75 1517.61 1043.91C1514.34 1043.08 1511.4 1041.26 1509.18 1038.72C1506.97 1036.17 1505.58 1033 1505.2 1029.65C1504.83 1026.29 1505.48 1022.9 1507.08 1019.92C1508.67 1016.95 1511.14 1014.53 1514.14 1012.99C1517.15 1011.45 1520.55 1010.86 1523.9 1011.3C1527.24 1011.75 1530.37 1013.2 1532.88 1015.47C1535.38 1017.74 1537.13 1020.71 1537.9 1024L1537.91 1024Z" fill="#92BDF9"/>
<path d="M1608.55 1067.72L1630.53 1096.22C1631.15 1097.03 1631.94 1097.7 1632.85 1098.17C1633.75 1098.65 1634.75 1098.92 1635.77 1098.98C1636.79 1099.04 1637.82 1098.87 1638.77 1098.5C1639.72 1098.12 1640.58 1097.55 1641.29 1096.81L1666.17 1070.96C1668.26 1069.41 1670.02 1067.46 1671.36 1065.23C1672.7 1062.99 1673.59 1060.52 1673.97 1057.94C1674.35 1055.36 1674.22 1052.74 1673.59 1050.21C1672.95 1047.68 1671.82 1045.31 1670.27 1043.22C1668.72 1041.13 1666.77 1039.36 1664.53 1038.03C1662.29 1036.7 1659.82 1035.82 1657.24 1035.44C1654.67 1035.07 1652.04 1035.21 1649.52 1035.85C1647 1036.49 1644.63 1037.63 1642.54 1039.19C1642.33 1039.35 1642.11 1039.51 1641.91 1039.68L1610.71 1057.14C1609.81 1057.64 1609.04 1058.33 1608.44 1059.15C1607.83 1059.98 1607.41 1060.93 1607.21 1061.93C1607 1062.94 1607.02 1063.97 1607.25 1064.97C1607.48 1065.97 1607.92 1066.9 1608.55 1067.72H1608.55Z" fill="#316FF6"/>
<path d="M768.862 1522.21L789.955 1522.2L799.991 1440.78L768.858 1440.78L768.862 1522.21Z" fill="#92BDF9"/>
<path d="M763.481 1515.31L805.022 1515.31H805.023C812.044 1515.31 818.777 1518.1 823.742 1523.07C828.707 1528.04 831.496 1534.78 831.496 1541.81V1542.67L763.482 1542.67L763.481 1515.31Z" fill="#282828"/>
<path d="M604.621 1513.07L625.477 1516.22L647.562 1437.21L620.219 1432.55L604.621 1513.07Z" fill="#92BDF9"/>
<path d="M600.33 1505.45L641.404 1511.66C648.346 1512.71 654.588 1516.48 658.755 1522.13C662.921 1527.79 664.673 1534.87 663.624 1541.82L663.495 1542.67L596.245 1532.5L600.33 1505.45Z" fill="#282828"/>
<path d="M669.657 1118.66L693.078 1124.8L691.52 1162.8L691.327 1232C693.634 1233.59 695.403 1235.85 696.398 1238.48C697.394 1241.11 697.57 1243.97 696.903 1246.7C696.236 1249.43 694.758 1251.89 692.663 1253.75C690.568 1255.62 687.957 1256.81 685.173 1257.16C682.389 1257.51 679.565 1257.01 677.074 1255.71C674.583 1254.42 672.542 1252.41 671.221 1249.93C669.901 1247.45 669.363 1244.63 669.679 1241.84C669.995 1239.05 671.15 1236.42 672.99 1234.3L665.793 1164.86L669.657 1118.66Z" fill="#92BDF9"/>
<path d="M665.581 1075.13C665.71 1071.46 666.893 1067.9 668.989 1064.88C671.085 1061.86 674.005 1059.51 677.399 1058.11C680.577 1056.69 684.101 1056.23 687.538 1056.78C690.975 1057.33 694.176 1058.88 696.747 1061.23C698.596 1062.88 700.062 1064.92 701.043 1067.19C702.024 1069.47 702.497 1071.94 702.428 1074.42C702.49 1096.68 697.468 1129.13 697.417 1129.46L697.337 1129.97L663.104 1141.51L665.581 1075.13Z" fill="#316FF6"/>
<path d="M726.791 1138.33L779.151 1124.76L803.355 1206.35L804.215 1510.28L764.175 1510.03L747.437 1264.03L640.764 1491.34L597.751 1486.17L691.52 1242.51C691.52 1242.51 686.358 1199.46 702.703 1177.93L699.262 1155.55L726.791 1138.33Z" fill="#282828"/>
<path d="M691.485 1158.62C690.753 1157.73 690.221 1156.7 689.926 1155.58C689.631 1154.47 689.579 1153.3 689.774 1152.17L665.89 1080.45C664.775 1077.1 664.657 1073.5 665.549 1070.08C666.442 1066.66 668.307 1063.58 670.918 1061.2L681.286 1051.76L688.312 1023.64L728.696 1033.52L725.368 1046.84L743.645 1043.51L782.14 1129.32L701.675 1161.51L697.712 1161.57C696.52 1161.58 695.343 1161.31 694.266 1160.8C693.189 1160.29 692.239 1159.55 691.485 1158.62Z" fill="#316FF6"/>
<path d="M747.537 1098.08L770.611 1090.74L789.591 1123.69L826.382 1182.27C829.185 1182.39 831.887 1183.35 834.131 1185.04C836.374 1186.72 838.053 1189.05 838.946 1191.71C839.839 1194.37 839.904 1197.25 839.131 1199.94C838.359 1202.64 836.786 1205.04 834.62 1206.83C832.454 1208.62 829.798 1209.7 827.003 1209.94C824.208 1210.18 821.405 1209.57 818.966 1208.18C816.527 1206.79 814.566 1204.7 813.343 1202.17C812.12 1199.64 811.692 1196.81 812.116 1194.03L768.944 1139.19L747.537 1098.08Z" fill="#92BDF9"/>
<path d="M720.843 1063.47C718.99 1060.29 718.09 1056.65 718.25 1052.98C718.41 1049.31 719.622 1045.76 721.743 1042.76C723.67 1039.86 726.4 1037.59 729.6 1036.22C732.801 1034.84 736.331 1034.44 739.758 1035.05C742.203 1035.45 744.53 1036.39 746.576 1037.79C748.622 1039.19 750.338 1041.02 751.604 1043.15C763.546 1061.94 776.634 1092.05 776.764 1092.35L776.972 1092.83L754.202 1120.9L720.843 1063.47Z" fill="#316FF6"/>
<path d="M718.191 1018.4C735.911 1018.4 750.277 1004.02 750.277 986.289C750.277 968.553 735.911 954.175 718.191 954.175C700.47 954.175 686.104 968.553 686.104 986.289C686.104 1004.02 700.47 1018.4 718.191 1018.4Z" fill="#92BDF9"/>
<path d="M661.488 972.743C678.557 972.743 692.395 958.893 692.395 941.809C692.395 924.725 678.557 910.876 661.488 910.876C644.418 910.876 630.581 924.725 630.581 941.809C630.581 958.893 644.418 972.743 661.488 972.743Z" fill="#282828"/>
<path d="M634.829 967.424C638.829 970.318 643.463 972.211 648.345 972.944C653.226 973.678 658.211 973.231 662.884 971.64C667.557 970.05 671.782 967.363 675.205 963.804C678.627 960.244 681.148 955.916 682.557 951.182C682.024 955.425 680.618 959.511 678.427 963.182C676.237 966.854 673.309 970.031 669.83 972.513C666.351 974.995 662.395 976.728 658.213 977.603C654.031 978.478 649.712 978.475 645.531 977.595C641.35 976.716 637.396 974.978 633.92 972.492C630.444 970.005 627.52 966.825 625.334 963.151C623.148 959.477 621.746 955.389 621.218 951.145C620.69 946.902 621.047 942.595 622.266 938.496C621.574 944.002 622.375 949.594 624.585 954.684C626.795 959.774 630.334 964.174 634.829 967.424Z" fill="#282828"/>
<path d="M756.802 967.459C751.406 957.791 749.341 953.753 742.384 947.874C736.232 942.674 728.665 941.147 722.562 946.074C715.341 942.952 707.307 942.244 699.653 944.055C691.998 945.867 685.132 950.101 680.073 956.129C675.015 962.158 672.034 969.658 671.574 977.517C671.114 985.376 673.199 993.174 677.519 999.752C681.84 1006.33 688.165 1011.34 695.556 1014.03C702.947 1016.73 711.009 1016.96 718.544 1014.7C726.079 1012.45 732.686 1007.82 737.383 1001.5C742.08 995.189 744.617 987.527 744.617 979.654C744.611 978.272 744.528 976.891 744.367 975.518C749.673 974.772 751.496 968.205 756.802 967.459Z" fill="#282828"/>
<path d="M1070.65 1543H407.74C407.278 1543 406.836 1542.82 406.51 1542.49C406.183 1542.16 406 1541.72 406 1541.26C406 1540.8 406.183 1540.35 406.51 1540.03C406.836 1539.7 407.278 1539.52 407.74 1539.52H1070.65C1071.11 1539.52 1071.55 1539.7 1071.88 1540.03C1072.2 1540.35 1072.39 1540.8 1072.39 1541.26C1072.39 1541.72 1072.2 1542.16 1071.88 1542.49C1071.55 1542.82 1071.11 1543 1070.65 1543Z" fill="#316FF6"/>
<path d="M1956.26 1543H1293.35C1292.89 1543 1292.45 1542.82 1292.12 1542.49C1291.8 1542.16 1291.61 1541.72 1291.61 1541.26C1291.61 1540.8 1291.8 1540.35 1292.12 1540.03C1292.45 1539.7 1292.89 1539.52 1293.35 1539.52H1956.26C1956.72 1539.52 1957.16 1539.7 1957.49 1540.03C1957.82 1540.35 1958 1540.8 1958 1541.26C1958 1541.72 1957.82 1542.16 1957.49 1542.49C1957.16 1542.82 1956.72 1543 1956.26 1543Z" fill="#316FF6"/>
<path d="M1092.04 705.393H1088.56V1233.1H1092.04V705.393Z" fill="#316FF6"/>
</g>
<defs>
<linearGradient id="paint0_linear_481_1343" x1="1156.13" y1="602.201" x2="1176.13" y2="1643.2" gradientUnits="userSpaceOnUse">
<stop stop-color="#92BDF9"/>
<stop offset="0.23" stop-color="#7091BD"/>
<stop offset="0.38" stop-color="#5D799C"/>
<stop offset="0.545" stop-color="#4C637E"/>
<stop offset="0.655" stop-color="#3B4D60"/>
<stop offset="0.84" stop-color="#344454"/>
<stop offset="1" stop-color="#2E3D4A"/>
</linearGradient>
<clipPath id="clip0_481_1343">
<rect width="1552" height="872" fill="white" transform="translate(406 671)"/>
</clipPath>
</defs>
</svg>
